<svg width="50" height="57" viewBox="0 0 50 57" fill="none" xmlns="http://www.w3.org/2000/svg">
<path d="M40.3829 20.8094C36.9268 18.7856 35.3989 17.9375 35.3356 17.9028L34.6554 17.5258L32.5885 21.1506L33.2687 21.5276C33.2841 21.5364 34.8391 22.3999 38.2295 24.3862C40.6224 25.7881 42.5857 27.8093 43.9058 30.2325C47.7358 37.2603 45.1624 46.151 38.1696 50.0516C34.685 51.9939 30.6597 52.468 26.8372 51.3845C23.02 50.3029 19.8791 47.8068 17.9963 44.3643L16.3174 41.0659L16.3516 41.047L15.9817 40.3687C15.1503 38.841 14.9959 37.0866 15.5489 35.4256C16.1007 33.7665 17.283 32.4395 18.8793 31.6869C21.771 30.3221 25.3367 31.3628 26.9972 34.0551C28.6981 36.8126 28.0185 40.3761 25.4156 42.3423C24.5885 42.968 24.3458 44.0772 24.838 44.9798C25.1281 45.513 25.6401 45.8914 26.2398 46.0168C26.8395 46.1422 27.4646 46.0022 27.9543 45.6318C32.2106 42.4111 33.3749 36.5535 30.6608 32.0051C29.3426 29.7965 27.1679 28.1648 24.537 27.4135C21.9057 26.6606 19.1774 26.8889 16.8545 28.0561C14.67 29.1538 12.5504 31.3607 11.4235 33.6701C11.075 33.1816 10.7103 32.6813 10.328 32.1582L10.3174 32.1433C8.40243 29.5207 6.23275 26.5462 5.29202 23.7741C5.03839 23.0291 4.43166 22.4805 3.70659 22.345C3.2469 22.2597 2.78317 22.3242 2.36402 22.5367C1.39063 23.0254 0.759499 24.2968 0.988704 25.3232L0.996785 25.3534C1.76148 28.0546 4.32468 31.643 7.29297 35.7968C9.55496 38.9632 12.1181 42.5515 14.2678 46.2878L14.2851 46.322C16.7082 50.7674 20.7471 53.9829 25.6602 55.3754C28.9817 56.3167 32.4873 56.3456 35.7997 55.458C37.2315 55.0743 38.6273 54.5193 39.9458 53.8104C40.0343 53.7625 40.1244 53.7141 40.2126 53.6646C44.5467 51.2474 47.7016 47.2502 49.0966 42.4122C50.4857 37.5951 49.9539 32.5638 47.6008 28.2451C45.9215 25.165 43.4261 22.593 40.3817 20.8113L40.3829 20.8094Z" fill="white"/>
<path d="M13.6172 26.5526L14.0982 27.0961L17.4151 24.583L16.8913 23.9653C13.1941 19.5946 10.4062 15.3569 8.36755 11.0089L8.31372 10.9118C8.00811 10.449 7.53868 10.1319 6.99013 10.0203C6.44159 9.90868 5.88116 10.0152 5.41159 10.3204C4.46106 10.9372 4.17616 12.2064 4.77046 13.1543C7.4773 18.4999 10.371 22.8822 13.6176 26.5541L13.6172 26.5526Z" fill="white"/>
<path d="M21.1412 22.0826L21.6327 22.6895L25.0155 19.9518L24.5283 19.355C20.2877 14.165 17.3031 9.0652 15.1363 3.30498L15.083 3.19157C14.8055 2.71153 14.3568 2.36789 13.8158 2.22352C13.2768 2.08024 12.7105 2.15277 12.2222 2.43071C11.2482 2.98425 10.8813 4.22207 11.3986 5.20032C13.4993 11.0251 16.7769 16.7059 21.1416 22.0841L21.1412 22.0826Z" fill="white"/>
<path d="M29.1992 18.296L29.8261 18.9685L32.2943 15.8035L31.9004 15.3288C28.0827 10.7221 27.0359 8.77531 24.9026 2.3095C24.735 1.80001 24.3676 1.38768 23.8721 1.15032C23.3596 0.904573 22.7578 0.875097 22.2208 1.06909C21.6895 1.25994 21.2648 1.64691 21.0263 2.15529C20.7883 2.66517 20.7644 3.23565 20.9637 3.7593C23.442 10.3282 24.5729 13.3274 29.2007 18.2956L29.1992 18.296Z" fill="#F5525A"/>
<path d="M48.2653 9.72598C47.2427 8.36427 45.3196 8.89895 44.4841 10.1831C41.989 12.961 41.3847 18.759 41.3847 18.759L44.9573 21.6389C44.9573 21.6389 45.8472 20.4112 46.0346 17.728C45.9615 13.5904 50.1258 12.0415 48.2653 9.72598Z" fill="white"/>
</svg>
