<svg width="76" height="65" viewBox="0 0 76 65" fill="none" xmlns="http://www.w3.org/2000/svg">
<path fill-rule="evenodd" clip-rule="evenodd" d="M35.0628 3.5791L38.2944 0.361267L41.526 3.5791L38.2944 6.79694L35.0628 3.5791ZM39.3436 3.51654C39.3436 4.13288 38.8418 4.63254 38.2228 4.63254C37.6038 4.63254 37.102 4.13288 37.102 3.51654C37.102 2.90018 37.6038 2.40053 38.2228 2.40053C38.8418 2.40053 39.3436 2.90018 39.3436 3.51654Z" fill="#5D6782"/>
<path d="M25.3055 22.8029H23.8643V27.9483H25.3055V22.8029Z" fill="#5D6782"/>
<path d="M52.0444 22.8029H50.6033V27.9483H52.0444V22.8029Z" fill="#5D6782"/>
<path d="M47.2119 39.3443C47.239 39.3602 47.2631 39.3805 47.2833 39.4045C47.2624 39.3803 47.2364 39.3609 47.2071 39.3479L47.2119 39.3443Z" fill="#5D6782"/>
<path d="M47.2397 39.3672L47.2567 39.3816L47.2736 39.3985L47.2845 39.4105C47.2636 39.3863 47.2376 39.367 47.2083 39.354L47.2264 39.366H47.2349" fill="#5D6782"/>
<path d="M27.2714 48.8551C27.2714 49.2547 27.2714 49.3161 27.2774 49.5774V49.5461C27.2738 49.3113 27.2714 49.0826 27.2714 48.8551Z" fill="#5D6782"/>
<path d="M27.2714 48.8551C27.2714 49.2547 27.2714 49.3161 27.2774 49.5774V49.5461C27.2774 49.3149 27.2714 49.0862 27.2714 48.8587" fill="#5D6782"/>
<path d="M27.2774 49.5738V49.5425C27.2774 49.3113 27.2714 49.0826 27.2714 48.8551C27.2714 48.9574 27.2714 49.0958 27.2714 49.1958C27.2714 49.2957 27.2714 49.4606 27.2714 49.5738" fill="#5D6782"/>
<path d="M27.2774 49.5738V49.5425C27.2774 49.3113 27.2714 49.0826 27.2714 48.8551C27.2714 48.9574 27.2714 49.0958 27.2714 49.1958C27.2714 49.2957 27.2714 49.4606 27.2714 49.5738" fill="#5D6782"/>
<path d="M27.2774 49.5738V49.5425C27.2774 49.3113 27.2714 49.0826 27.2714 48.8551C27.2714 48.9574 27.2714 49.0958 27.2714 49.1958C27.2714 49.2957 27.2714 49.4606 27.2714 49.5738" fill="#5D6782"/>
<path d="M27.2774 49.5738V49.5425C27.2774 49.3113 27.2714 49.0826 27.2714 48.8551C27.2714 48.9574 27.2714 49.0958 27.2714 49.1958C27.2714 49.2957 27.2714 49.4606 27.2714 49.5738" fill="#5D6782"/>
<path d="M27.2774 49.5738V49.5425C27.2774 49.3113 27.2714 49.0826 27.2714 48.8551C27.2714 48.9574 27.2714 49.0958 27.2714 49.1958C27.2714 49.2957 27.2714 49.4606 27.2714 49.5738" fill="#5D6782"/>
<path d="M27.2774 49.5738V49.5425C27.2774 49.3113 27.2714 49.0826 27.2714 48.8551C27.2714 48.9574 27.2714 49.0958 27.2714 49.1958C27.2714 49.2957 27.2714 49.4606 27.2714 49.5738" fill="#5D6782"/>
<path d="M27.2774 49.5738V49.5425C27.2774 49.3113 27.2714 49.0826 27.2714 48.8551C27.2714 48.9574 27.2714 49.0958 27.2714 49.1958C27.2714 49.2957 27.2714 49.4606 27.2714 49.5738" fill="#5D6782"/>
<path d="M27.2774 49.5738V49.5425C27.2774 49.3113 27.2714 49.0826 27.2714 48.8551C27.2714 48.9574 27.2714 49.0958 27.2714 49.1958C27.2714 49.2957 27.2714 49.4606 27.2714 49.5738" fill="#5D6782"/>
<path d="M27.2774 49.5738V49.5425C27.2774 49.3113 27.2714 49.0826 27.2714 48.8551C27.2714 48.9574 27.2714 49.0958 27.2714 49.1958C27.2714 49.2957 27.2714 49.4606 27.2714 49.5738" fill="#5D6782"/>
<path d="M27.2774 49.5738V49.5425C27.2774 49.3113 27.2714 49.0826 27.2714 48.8551C27.2714 48.9574 27.2714 49.0958 27.2714 49.1958C27.2714 49.2957 27.2714 49.4606 27.2714 49.5738" fill="#5D6782"/>
<path d="M27.2774 49.5738V49.5425C27.2774 49.3113 27.2714 49.0826 27.2714 48.8551C27.2714 48.9574 27.2714 49.0958 27.2714 49.1958C27.2714 49.2957 27.2714 49.4606 27.2714 49.5738" fill="#5D6782"/>
<path d="M27.2774 49.5738V49.5425C27.2774 49.3113 27.2714 49.0826 27.2714 48.8551C27.2714 48.9574 27.2714 49.0958 27.2714 49.1958C27.2714 49.2957 27.2714 49.4606 27.2714 49.5738" fill="#5D6782"/>
<path d="M27.2774 49.5738V49.5425C27.2774 49.3113 27.2714 49.0826 27.2714 48.8551C27.2714 48.9574 27.2714 49.0958 27.2714 49.1958C27.2714 49.2957 27.2714 49.4606 27.2714 49.5738" fill="#5D6782"/>
<path d="M27.2774 49.5738V49.5425C27.2774 49.3113 27.2714 49.0826 27.2714 48.8551C27.2714 48.9574 27.2714 49.0958 27.2714 49.1958C27.2714 49.2957 27.2714 49.4606 27.2714 49.5738" fill="#5D6782"/>
<path d="M27.2774 49.5738V49.5425C27.2774 49.3113 27.2714 49.0826 27.2714 48.8551C27.2714 48.9574 27.2714 49.0958 27.2714 49.1958C27.2714 49.2957 27.2714 49.4606 27.2714 49.5738" fill="#5D6782"/>
<path d="M27.2774 49.5738V49.5425C27.2774 49.3113 27.2714 49.0826 27.2714 48.8551C27.2714 48.9574 27.2714 49.0958 27.2714 49.1958C27.2714 49.2957 27.2714 49.4606 27.2714 49.5738" fill="#5D6782"/>
<path d="M27.2774 49.5738V49.5425C27.2774 49.3113 27.2714 49.0826 27.2714 48.8551C27.2714 48.9574 27.2714 49.0958 27.2714 49.1958C27.2714 49.2957 27.2714 49.4606 27.2714 49.5738" fill="#5D6782"/>
<path d="M27.2774 49.5738V49.5425C27.2774 49.3113 27.2714 49.0826 27.2714 48.8551C27.2714 48.9574 27.2714 49.0958 27.2714 49.1958C27.2714 49.2957 27.2714 49.4606 27.2714 49.5738" fill="#5D6782"/>
<path d="M27.2774 49.5738V49.5425C27.2774 49.3113 27.2714 49.0826 27.2714 48.8551C27.2714 48.9574 27.2714 49.0958 27.2714 49.1958C27.2714 49.2957 27.2714 49.4606 27.2714 49.5738" fill="#5D6782"/>
<path d="M27.2774 49.5738V49.5425C27.2774 49.3113 27.2714 49.0826 27.2714 48.8551C27.2714 48.9574 27.2714 49.0958 27.2714 49.1958C27.2714 49.2957 27.2714 49.4606 27.2714 49.5738" fill="#5D6782"/>
<path d="M27.2774 49.5738V49.5425C27.2774 49.3113 27.2714 49.0826 27.2714 48.8551C27.2714 48.9574 27.2714 49.0958 27.2714 49.1958C27.2714 49.2957 27.2714 49.4606 27.2714 49.5738" fill="#5D6782"/>
<path d="M27.2774 49.5738V49.5425C27.2774 49.3113 27.2714 49.0826 27.2714 48.8551C27.2714 48.9574 27.2714 49.0958 27.2714 49.1958C27.2714 49.2957 27.2714 49.4606 27.2714 49.5738" fill="#5D6782"/>
<path d="M27.2774 49.5738V49.5425C27.2774 49.3113 27.2714 49.0826 27.2714 48.8551C27.2714 48.9574 27.2714 49.0958 27.2714 49.1958C27.2714 49.2957 27.2714 49.4606 27.2714 49.5738" fill="#5D6782"/>
<path d="M27.2774 49.5738V49.5425C27.2774 49.3113 27.2714 49.0826 27.2714 48.8551C27.2714 48.9574 27.2714 49.0958 27.2714 49.1958C27.2714 49.2957 27.2714 49.4606 27.2714 49.5738" fill="#5D6782"/>
<path d="M27.2774 49.5738V49.5425C27.2774 49.3113 27.2714 49.0826 27.2714 48.8551C27.2714 48.9574 27.2714 49.0958 27.2714 49.1958C27.2714 49.2957 27.2714 49.4606 27.2714 49.5738" fill="#5D6782"/>
<path d="M27.2774 49.5738V49.5425C27.2774 49.3113 27.2714 49.0826 27.2714 48.8551C27.2714 48.9574 27.2714 49.0958 27.2714 49.1958C27.2714 49.2957 27.2714 49.4606 27.2714 49.5738" fill="#5D6782"/>
<path d="M27.2774 49.5738V49.5425C27.2774 49.3113 27.2714 49.0826 27.2714 48.8551C27.2714 48.9574 27.2714 49.0958 27.2714 49.1958C27.2714 49.2957 27.2714 49.4606 27.2714 49.5738" fill="#5D6782"/>
<path d="M27.2774 49.5738V49.5425C27.2774 49.3113 27.2714 49.0826 27.2714 48.8551C27.2714 48.9574 27.2714 49.0958 27.2714 49.1958C27.2714 49.2957 27.2714 49.4606 27.2714 49.5738" fill="#5D6782"/>
<path d="M27.2774 49.5738V49.5425C27.2774 49.3113 27.2714 49.0826 27.2714 48.8551C27.2714 48.9574 27.2714 49.0958 27.2714 49.1958C27.2714 49.2957 27.2714 49.4606 27.2714 49.5738" fill="#5D6782"/>
<path d="M27.2774 49.5738V49.5425C27.2774 49.3113 27.2714 49.0826 27.2714 48.8551C27.2714 48.9574 27.2714 49.0958 27.2714 49.1958C27.2714 49.2957 27.2714 49.4606 27.2714 49.5738" fill="#5D6782"/>
<path d="M27.2774 49.5738V49.5425C27.2774 49.3113 27.2714 49.0826 27.2714 48.8551C27.2714 48.9574 27.2714 49.0958 27.2714 49.1958C27.2714 49.2957 27.2714 49.4606 27.2714 49.5738" fill="#5D6782"/>
<path d="M27.2774 49.5738V49.5425C27.2774 49.3113 27.2714 49.0826 27.2714 48.8551C27.2714 48.9574 27.2714 49.0958 27.2714 49.1958C27.2714 49.2957 27.2714 49.4606 27.2714 49.5738" fill="#5D6782"/>
<path d="M27.2774 49.5738V49.5425C27.2774 49.3113 27.2714 49.0826 27.2714 48.8551C27.2714 48.9574 27.2714 49.0958 27.2714 49.1958C27.2714 49.2957 27.2714 49.4606 27.2714 49.5738" fill="#5D6782"/>
<path d="M27.2774 49.5738V49.5425C27.2774 49.3113 27.2714 49.0826 27.2714 48.8551C27.2714 48.9574 27.2714 49.0958 27.2714 49.1958C27.2714 49.2957 27.2714 49.4606 27.2714 49.5738" fill="#5D6782"/>
<path d="M27.2774 49.5738V49.5425C27.2774 49.3113 27.2714 49.0826 27.2714 48.8551C27.2714 48.9574 27.2714 49.0958 27.2714 49.1958C27.2714 49.2957 27.2714 49.4606 27.2714 49.5738" fill="#5D6782"/>
<path d="M27.2774 49.5738V49.5425C27.2774 49.3113 27.2714 49.0826 27.2714 48.8551C27.2714 48.9574 27.2714 49.0958 27.2714 49.1958C27.2714 49.2957 27.2714 49.4606 27.2714 49.5738" fill="#5D6782"/>
<path d="M27.2774 49.5738V49.5425C27.2774 49.3113 27.2714 49.0826 27.2714 48.8551C27.2714 48.9574 27.2714 49.0958 27.2714 49.1958C27.2714 49.2957 27.2714 49.4606 27.2714 49.5738" fill="#5D6782"/>
<path d="M27.2774 49.5738V49.5425C27.2774 49.3113 27.2714 49.0826 27.2714 48.8551C27.2714 48.9574 27.2714 49.0958 27.2714 49.1958C27.2714 49.2957 27.2714 49.4606 27.2714 49.5738" fill="#5D6782"/>
<path d="M27.2774 49.5738V49.5425C27.2774 49.3113 27.2714 49.0826 27.2714 48.8551C27.2714 48.9574 27.2714 49.0958 27.2714 49.1958C27.2714 49.2957 27.2714 49.4606 27.2714 49.5738" fill="#5D6782"/>
<path d="M27.2774 49.5738V49.5425C27.2774 49.3113 27.2714 49.0826 27.2714 48.8551C27.2714 48.9574 27.2714 49.0958 27.2714 49.1958C27.2714 49.2957 27.2714 49.4606 27.2714 49.5738" fill="#5D6782"/>
<path d="M27.2774 49.5738V49.5425C27.2774 49.3113 27.2714 49.0826 27.2714 48.8551C27.2714 48.9574 27.2714 49.0958 27.2714 49.1958C27.2714 49.2957 27.2714 49.4606 27.2714 49.5738" fill="#5D6782"/>
<path d="M27.2774 49.5738V49.5425C27.2774 49.3113 27.2714 49.0826 27.2714 48.8551C27.2714 48.9574 27.2714 49.0958 27.2714 49.1958C27.2714 49.2957 27.2714 49.4606 27.2714 49.5738" fill="#5D6782"/>
<path d="M27.2774 49.5738V49.5425C27.2774 49.3113 27.2714 49.0826 27.2714 48.8551C27.2714 48.9574 27.2714 49.0958 27.2714 49.1958C27.2714 49.2957 27.2714 49.4606 27.2714 49.5738" fill="#5D6782"/>
<path d="M27.2774 49.5738V49.5425C27.2774 49.3113 27.2714 49.0826 27.2714 48.8551C27.2714 48.9574 27.2714 49.0958 27.2714 49.1958C27.2714 49.2957 27.2714 49.4606 27.2714 49.5738" fill="#5D6782"/>
<path d="M27.2774 49.5738V49.5425C27.2774 49.3113 27.2714 49.0826 27.2714 48.8551C27.2714 48.9574 27.2714 49.0958 27.2714 49.1958C27.2714 49.2957 27.2714 49.4606 27.2714 49.5738" fill="#5D6782"/>
<path d="M27.2774 49.5738V49.5425C27.2774 49.3113 27.2714 49.0826 27.2714 48.8551C27.2714 48.9574 27.2714 49.0958 27.2714 49.1958C27.2714 49.2957 27.2714 49.4606 27.2714 49.5738" fill="#5D6782"/>
<path d="M27.2774 49.5738V49.5425C27.2774 49.3113 27.2714 49.0826 27.2714 48.8551C27.2714 48.9574 27.2714 49.0958 27.2714 49.1958C27.2714 49.2957 27.2714 49.4606 27.2714 49.5738" fill="#5D6782"/>
<path d="M27.2774 49.5738V49.5425C27.2774 49.3113 27.2714 49.0826 27.2714 48.8551C27.2714 48.9574 27.2714 49.0958 27.2714 49.1958C27.2714 49.2957 27.2714 49.4606 27.2714 49.5738" fill="#5D6782"/>
<path d="M27.2774 49.5738V49.5425C27.2774 49.3113 27.2714 49.0826 27.2714 48.8551C27.2714 48.9574 27.2714 49.0958 27.2714 49.1958C27.2714 49.2957 27.2714 49.4606 27.2714 49.5738" fill="#5D6782"/>
<path d="M27.2774 49.5738V49.5425C27.2774 49.3113 27.2714 49.0826 27.2714 48.8551C27.2714 48.9574 27.2714 49.0958 27.2714 49.1958C27.2714 49.2957 27.2714 49.4606 27.2714 49.5738" fill="#5D6782"/>
<path d="M27.2774 49.5738V49.5425C27.2774 49.3113 27.2714 49.0826 27.2714 48.8551C27.2714 48.9574 27.2714 49.0958 27.2714 49.1958C27.2714 49.2957 27.2714 49.4606 27.2714 49.5738" fill="#5D6782"/>
<path d="M27.2774 49.5738V49.5425C27.2774 49.3113 27.2714 49.0826 27.2714 48.8551C27.2714 48.9574 27.2714 49.0958 27.2714 49.1958C27.2714 49.2957 27.2714 49.4606 27.2714 49.5738" fill="#5D6782"/>
<path d="M27.2774 49.5738V49.5425C27.2774 49.3113 27.2714 49.0826 27.2714 48.8551C27.2714 48.9574 27.2714 49.0958 27.2714 49.1958C27.2714 49.2957 27.2714 49.4606 27.2714 49.5738" fill="#5D6782"/>
<path d="M27.2774 49.5738V49.5425C27.2774 49.3113 27.2714 49.0826 27.2714 48.8551C27.2714 48.9574 27.2714 49.0958 27.2714 49.1958C27.2714 49.2957 27.2714 49.4606 27.2714 49.5738" fill="#5D6782"/>
<path d="M27.2774 49.5738V49.5425C27.2774 49.3113 27.2714 49.0826 27.2714 48.8551C27.2714 48.9574 27.2714 49.0958 27.2714 49.1958C27.2714 49.2957 27.2714 49.4606 27.2714 49.5738" fill="#5D6782"/>
<path d="M27.2774 49.5738V49.5425C27.2774 49.3113 27.2714 49.0826 27.2714 48.8551C27.2714 48.9574 27.2714 49.0958 27.2714 49.1958C27.2714 49.2957 27.2714 49.4606 27.2714 49.5738" fill="#5D6782"/>
<path d="M27.2774 49.5738V49.5425C27.2774 49.3113 27.2714 49.0826 27.2714 48.8551C27.2714 48.9574 27.2714 49.0958 27.2714 49.1958C27.2714 49.2957 27.2714 49.4606 27.2714 49.5738" fill="#5D6782"/>
<path d="M27.2774 49.5738V49.5425C27.2774 49.3113 27.2714 49.0826 27.2714 48.8551C27.2714 48.9574 27.2714 49.0958 27.2714 49.1958C27.2714 49.2957 27.2714 49.4606 27.2714 49.5738" fill="#5D6782"/>
<path d="M27.2774 49.5738V49.5425C27.2774 49.3113 27.2714 49.0826 27.2714 48.8551C27.2714 48.9574 27.2714 49.0958 27.2714 49.1958C27.2714 49.2957 27.2714 49.4606 27.2714 49.5738" fill="#5D6782"/>
<path d="M27.2774 49.5738V49.5425C27.2774 49.3113 27.2714 49.0826 27.2714 48.8551C27.2714 48.9574 27.2714 49.0958 27.2714 49.1958C27.2714 49.2957 27.2714 49.4606 27.2714 49.5738" fill="#5D6782"/>
<path d="M27.2774 49.5738V49.5425C27.2774 49.3113 27.2714 49.0826 27.2714 48.8551C27.2714 48.9574 27.2714 49.0958 27.2714 49.1958C27.2714 49.2957 27.2714 49.4606 27.2714 49.5738" fill="#5D6782"/>
<path d="M27.2774 49.5738V49.5425C27.2774 49.3113 27.2714 49.0826 27.2714 48.8551C27.2714 48.9574 27.2714 49.0958 27.2714 49.1958C27.2714 49.2957 27.2714 49.4606 27.2714 49.5738" fill="#5D6782"/>
<path d="M27.2774 49.5738V49.5425C27.2774 49.3113 27.2714 49.0826 27.2714 48.8551C27.2714 48.9574 27.2714 49.0958 27.2714 49.1958C27.2714 49.2957 27.2714 49.4606 27.2714 49.5738" fill="#5D6782"/>
<path d="M27.2774 49.5738V49.5425C27.2774 49.3113 27.2714 49.0826 27.2714 48.8551C27.2714 48.9574 27.2714 49.0958 27.2714 49.1958C27.2714 49.2957 27.2714 49.4606 27.2714 49.5738" fill="#5D6782"/>
<path d="M27.2774 49.5738V49.5425C27.2774 49.3113 27.2714 49.0826 27.2714 48.8551C27.2714 48.9574 27.2714 49.0958 27.2714 49.1958C27.2714 49.2957 27.2714 49.4606 27.2714 49.5738" fill="#5D6782"/>
<path d="M27.2774 49.5738V49.5425C27.2774 49.3113 27.2714 49.0826 27.2714 48.8551C27.2714 48.9574 27.2714 49.0958 27.2714 49.1958C27.2714 49.2957 27.2714 49.4606 27.2714 49.5738" fill="#5D6782"/>
<path d="M27.2774 49.5738V49.5425C27.2774 49.3113 27.2714 49.0826 27.2714 48.8551C27.2714 48.9574 27.2714 49.0958 27.2714 49.1958C27.2714 49.2957 27.2714 49.4606 27.2714 49.5738" fill="#5D6782"/>
<path d="M27.2774 49.5738V49.5425C27.2774 49.3113 27.2714 49.0826 27.2714 48.8551C27.2714 48.9574 27.2714 49.0958 27.2714 49.1958C27.2714 49.2957 27.2714 49.4606 27.2714 49.5738" fill="#5D6782"/>
<path d="M27.2774 49.5738V49.5425C27.2774 49.3113 27.2714 49.0826 27.2714 48.8551C27.2714 48.9574 27.2714 49.0958 27.2714 49.1958C27.2714 49.2957 27.2714 49.4606 27.2714 49.5738" fill="#5D6782"/>
<path d="M27.2774 49.5738V49.5425C27.2774 49.3113 27.2714 49.0826 27.2714 48.8551C27.2714 48.9574 27.2714 49.0958 27.2714 49.1958C27.2714 49.2957 27.2714 49.4606 27.2714 49.5738" fill="#5D6782"/>
<path d="M27.2774 49.5738V49.5425C27.2774 49.3113 27.2714 49.0826 27.2714 48.8551C27.2714 48.9574 27.2714 49.0958 27.2714 49.1958C27.2714 49.2957 27.2714 49.4606 27.2714 49.5738" fill="#5D6782"/>
<path d="M27.2774 49.5738V49.5425C27.2774 49.3113 27.2714 49.0826 27.2714 48.8551C27.2714 48.9574 27.2714 49.0958 27.2714 49.1958C27.2714 49.2957 27.2714 49.4606 27.2714 49.5738" fill="#5D6782"/>
<path d="M27.2774 49.5738V49.5425C27.2774 49.3113 27.2714 49.0826 27.2714 48.8551C27.2714 48.9574 27.2714 49.0958 27.2714 49.1958C27.2714 49.2957 27.2714 49.4606 27.2714 49.5738" fill="#5D6782"/>
<path d="M27.2774 49.5738V49.5425C27.2774 49.3113 27.2714 49.0826 27.2714 48.8551C27.2714 48.9574 27.2714 49.0958 27.2714 49.1958C27.2714 49.2957 27.2714 49.4606 27.2714 49.5738" fill="#5D6782"/>
<path d="M47.2531 41.1502C47.2635 41.1513 47.274 41.1513 47.2845 41.1502C47.3083 41.142 47.3298 41.1284 47.3474 41.1104L47.1503 41.3055C47.1337 41.3251 47.1113 41.3389 47.0863 41.345C47.0613 41.3511 47.035 41.349 47.0112 41.3392L47.2132 41.1405C47.2254 41.147 47.2392 41.1503 47.2531 41.1502Z" fill="#5D6782"/>
<path d="M47.0112 41.3368L47.2132 41.1381H47.2144L47.0112 41.338V41.3368Z" fill="#5D6782"/>
<path d="M47.0112 41.338L47.0548 41.2946L47.0753 41.2754L47.0935 41.2561L47.1261 41.2236L47.1406 41.2104L47.1769 41.1742L47.1866 41.1658L47.1938 41.1574L47.1999 41.1514L47.2059 41.1465L47.2095 41.1417L47.2132 41.1381H47.2144L47.0125 41.338H47.0112Z" fill="#5D6782"/>
<path d="M47.0125 41.338L47.2144 41.1381L47.2156 41.1393L47.0137 41.338H47.0125Z" fill="#5D6782"/>
<path d="M47.0137 41.338L47.2156 41.1393V41.1405L47.2132 41.1417L47.2107 41.1453L47.2059 41.1502L47.1999 41.155L47.1926 41.1622L47.1636 41.1911L47.1503 41.2031L47.137 41.2176L47.1213 41.232L47.1055 41.2489L47.0874 41.2657L47.0693 41.285L47.0487 41.3043L47.027 41.3259L47.0137 41.338Z" fill="#5D6782"/>
<path d="M47.0137 41.338L47.0366 41.3163L47.1128 41.2404L47.1285 41.226L47.1563 41.1983L47.1878 41.167L47.1962 41.1598L47.2023 41.1526L47.2156 41.1393H47.2168L47.2156 41.1405L47.2132 41.1417L47.2107 41.1453L47.2059 41.1502L47.1999 41.1562L47.1926 41.1622L47.1636 41.1911L47.1515 41.2043L47.137 41.2176L47.1055 41.2489L47.0693 41.285L47.0487 41.3043L47.027 41.3259L47.0149 41.338H47.0137Z" fill="#5D6782"/>
<path d="M47.0149 41.338L47.0366 41.3163L47.0584 41.2958L47.1285 41.226L47.1563 41.1983L47.1684 41.1875L47.1793 41.1766L47.1878 41.167L47.1962 41.1598L47.2023 41.1526L47.2083 41.1478L47.2144 41.1417L47.2168 41.1393L47.0149 41.3392V41.338Z" fill="#5D6782"/>
<path d="M47.0149 41.3392L47.2168 41.1393V41.1405L47.0149 41.3392Z" fill="#5D6782"/>
<path d="M47.0149 41.3392L47.2168 41.1405H47.218L47.0161 41.3392H47.0149Z" fill="#5D6782"/>
<path d="M47.0161 41.3392L47.218 41.1405V41.1417L47.2156 41.1429L47.1539 41.2043L47.1394 41.2176L47.1249 41.232L47.1092 41.2489L47.091 41.2657L47.0523 41.3043L47.0306 41.3247L47.0161 41.3392Z" fill="#5D6782"/>
<path d="M47.0161 41.3392L47.0391 41.3175L47.0983 41.2585L47.1152 41.2429L47.1587 41.1995L47.1696 41.1875L47.1805 41.1778L47.218 41.1405H47.2192L47.0173 41.3392H47.0161Z" fill="#5D6782"/>
<path d="M47.0173 41.3392L47.2192 41.1405L47.218 41.1417L47.2168 41.1429L47.1672 41.1923L47.1539 41.2043L47.1092 41.2489L47.0536 41.3043L47.0318 41.3247L47.0173 41.3392Z" fill="#5D6782"/>
<path d="M47.0173 41.3392L47.2192 41.1405V41.1417L47.0185 41.3392H47.0173Z" fill="#5D6782"/>
<path d="M47.0185 41.3392L47.0608 41.297L47.0814 41.2778L47.1321 41.2272L47.1467 41.214L47.1587 41.2007L47.1708 41.1887L47.1817 41.179L47.1914 41.1694L47.1986 41.161L47.2059 41.155L47.2192 41.1417H47.2204L47.0185 41.3404V41.3392Z" fill="#5D6782"/>
<path d="M47.0185 41.3404L47.2204 41.1417L47.0197 41.3404H47.0185Z" fill="#5D6782"/>
<path d="M47.0197 41.3404L47.2204 41.1417H47.2216L47.0197 41.3404Z" fill="#5D6782"/>
<path d="M47.0197 41.3404L47.2216 41.1417L47.0209 41.3404H47.0197Z" fill="#5D6782"/>
<path d="M47.0209 41.3404L47.2216 41.1417V41.1429L47.0209 41.3404Z" fill="#5D6782"/>
<path d="M47.0209 41.3404L47.2216 41.1429H47.2228L47.0209 41.3404Z" fill="#5D6782"/>
<path d="M47.0209 41.3404L47.2228 41.1429L47.0221 41.3404H47.0209Z" fill="#5D6782"/>
<path d="M47.0221 41.3404L47.2228 41.1429L47.0221 41.3416V41.3404Z" fill="#5D6782"/>
<path d="M47.0221 41.3416L47.2228 41.1429H47.224L47.0221 41.3416Z" fill="#5D6782"/>
<path d="M47.0221 41.3416L47.224 41.1429V41.1441L47.2216 41.1453L47.2144 41.1526L47.1334 41.2332L47.1164 41.2489L47.0233 41.3416H47.0221Z" fill="#5D6782"/>
<path d="M47.0233 41.3416L47.1201 41.2453L47.1358 41.2308L47.1636 41.2031L47.1745 41.1911L47.1853 41.1815L47.2144 41.1526L47.2192 41.1478L47.2216 41.1453L47.224 41.1429L47.0233 41.3416Z" fill="#5D6782"/>
<path d="M47.0233 41.3416L47.224 41.1429H47.2252L47.0233 41.3416Z" fill="#5D6782"/>
<path d="M47.0233 41.3416L47.2252 41.1429V41.1441H47.224L47.2228 41.1465L47.2192 41.1489L47.2156 41.1538L47.2095 41.1586L47.2023 41.1658L47.195 41.1742L47.1853 41.1827L47.0838 41.2838L47.0632 41.303L47.0245 41.3416H47.0233Z" fill="#5D6782"/>
<path d="M47.0245 41.3416L47.0862 41.2802L47.1043 41.2633L47.1515 41.2164L47.1636 41.2031L47.1757 41.1923L47.1866 41.1815L47.1962 41.173L47.2035 41.1646L47.2107 41.1586L47.2156 41.1526L47.2204 41.1489L47.2228 41.1453L47.2252 41.1441L47.0245 41.3416Z" fill="#5D6782"/>
<path d="M47.0245 41.3416L47.2252 41.1441H47.2265L47.0245 41.3416Z" fill="#5D6782"/>
<path d="M47.0245 41.3416L47.2265 41.1441L47.0258 41.3416H47.0245Z" fill="#5D6782"/>
<path d="M47.0258 41.3416L47.2265 41.1441V41.1453L47.224 41.1465L47.2168 41.1538L47.2047 41.1658L47.1757 41.1947L47.1636 41.2055L47.1515 41.2188L47.1213 41.2489L47.1043 41.2645L47.085 41.2826L47.0258 41.3416Z" fill="#5D6782"/>
<path d="M47.0258 41.3416L47.0475 41.3211L47.1225 41.2465L47.1382 41.232L47.1527 41.2176L47.1648 41.2043L47.1769 41.1935L47.2047 41.1658L47.2168 41.1538L47.2216 41.1489L47.224 41.1465L47.2265 41.1441L47.0258 41.3416Z" fill="#5D6782"/>
<path d="M47.0258 41.3416L47.2265 41.1441H47.2277L47.027 41.3428L47.0258 41.3416Z" fill="#5D6782"/>
<path d="M47.027 41.3428L47.2277 41.1441L47.2289 41.1453L47.0282 41.3428H47.027Z" fill="#5D6782"/>
<path d="M47.0282 41.3428L47.2289 41.1453L47.0294 41.3428H47.0282Z" fill="#5D6782"/>
<path d="M47.0294 41.3428L47.2289 41.1453H47.2301L47.0294 41.3428Z" fill="#5D6782"/>
<path d="M47.0294 41.3428L47.2301 41.1453L47.0306 41.3428H47.0294Z" fill="#5D6782"/>
<path d="M47.0306 41.3428L47.2301 41.1453H47.2313L47.0306 41.344V41.3428Z" fill="#5D6782"/>
<path d="M47.0306 41.344L47.2313 41.1453V41.1465L47.0306 41.344Z" fill="#5D6782"/>
<path d="M47.0306 41.344L47.2313 41.1465H47.2325L47.0318 41.344H47.0306Z" fill="#5D6782"/>
<path d="M47.0318 41.344L47.2325 41.1465H47.2337L47.033 41.344H47.0318Z" fill="#5D6782"/>
<path d="M47.033 41.344L47.2337 41.1465V41.1478L47.2313 41.1489L47.2289 41.1526L47.224 41.1562L47.195 41.1851L47.1841 41.1947L47.1733 41.2067L47.16 41.2188L47.1467 41.2332L47.1309 41.2477L47.0366 41.3416L47.033 41.344Z" fill="#5D6782"/>
<path d="M47.033 41.344L47.0548 41.3223L47.0753 41.303L47.0947 41.2838L47.1128 41.2669L47.1285 41.2501L47.1442 41.2344L47.1587 41.2212L47.218 41.1622L47.224 41.1574L47.2277 41.1526L47.2313 41.1489L47.2337 41.1478V41.1465L47.0342 41.344H47.033Z" fill="#5D6782"/>
<path d="M47.0342 41.344L47.2337 41.1465H47.2349L47.0342 41.344Z" fill="#5D6782"/>
<path d="M47.0342 41.344L47.2349 41.1465V41.1478L47.0342 41.344Z" fill="#5D6782"/>
<path d="M47.0342 41.344L47.2349 41.1478L47.0354 41.344H47.0342Z" fill="#5D6782"/>
<path d="M47.0354 41.344L47.2349 41.1478L47.0342 41.3452" fill="#5D6782"/>
<path d="M47.0391 41.3452L47.0608 41.3247L47.0802 41.3043L47.0995 41.2862L47.1491 41.2368L47.1636 41.2236L47.1757 41.2104L47.1878 41.1995L47.1986 41.1887L47.2071 41.179L47.2119 41.173L47.2252 41.1598L47.0245 41.356" fill="#5D6782"/>
<path d="M47.0415 41.3452L47.2422 41.1489L47.0427 41.3464" fill="#5D6782"/>
<path d="M47.0451 41.3464L47.2446 41.1489L47.0451 41.3452" fill="#5D6782"/>
<path d="M47.0548 41.3464L47.2543 41.1502L47.0548 41.3452" fill="#5D6782"/>
<path d="M47.0572 41.3464L47.2567 41.1514L47.0584 41.3464" fill="#5D6782"/>
<path d="M47.062 41.3464L47.0826 41.3259L47.1019 41.3079L47.1938 41.2164L47.2059 41.2055L47.2156 41.1947L47.2252 41.1851L47.2337 41.1778L47.247 41.1646H47.2615L47.0632 41.3596H47.0511" fill="#5D6782"/>
<path d="M47.0741 41.3452L47.2724 41.1502H47.2845L47.091 41.3404H47.0729" fill="#5D6782"/>
<path d="M47.091 41.3404L47.2893 41.1453C47.3109 41.1374 47.3303 41.1246 47.3461 41.108L47.2398 41.214L47.2252 41.2272L47.1672 41.285C47.151 41.3017 47.1311 41.3144 47.1092 41.3223" fill="#5D6782"/>
<path fill-rule="evenodd" clip-rule="evenodd" d="M59.1584 43.0222C59.1584 54.683 49.665 64.136 37.9544 64.136C26.2437 64.136 16.7504 54.683 16.7504 43.0222C16.7504 31.3614 26.2437 21.9084 37.9544 21.9084C49.665 21.9084 59.1584 31.3614 59.1584 43.0222ZM47.4537 38.6163C47.425 35.7068 47.1517 33.4351 46.6484 32.144C46.1822 32.2318 45.0844 32.505 43.6223 32.8804L40.7006 33.6697L42.3784 38.0857C43.0531 39.8196 43.4737 41.1937 43.6967 42.2321C44.0459 43.8791 44.2127 45.5598 44.194 47.2437C44.2072 49.0762 44.0622 50.8655 43.608 53.9506C42.4982 50.4155 41.7324 48.2472 40.9079 46.2353C40.1246 44.3233 39.2446 42.4526 38.2713 40.6306C37.3827 38.9909 36.3932 37.4084 35.3088 35.8921C34.2674 34.4795 33.1744 33.1655 32.2732 32.2643L28.6851 37.2241L29.7637 38.5874C29.108 40.2676 28.641 42.0159 28.3711 43.7999C28.0846 45.671 27.9732 47.743 27.99 49.9654L28.0056 51.2118C28.0327 53.3643 28.0591 55.474 28.0822 57.3053L33.2427 55.723C33.2427 54.8374 32.6255 52.1638 31.4582 47.968C30.9022 46.0753 30.6625 44.4389 30.6625 42.995C30.6493 41.7496 30.7511 40.5057 30.9669 39.2793C32.6315 40.3129 34.2374 41.6473 36.1669 43.6002C37.8405 45.2494 39.3697 47.04 40.7377 48.9523C42.7307 51.5995 43.6355 53.6618 43.6355 55.2261C43.636 55.4194 43.6183 55.6124 43.5828 55.8024C43.5723 55.8957 43.5611 55.9803 43.5629 55.9806C43.566 55.9811 43.6081 55.7269 43.7602 54.8206C44.3546 53.7761 45.4607 51.2926 46.1798 48.7778C46.878 46.2329 47.2406 43.6071 47.2584 40.9675L47.4537 40.7725V38.6163Z" fill="#5D6782"/>
<path d="M33.626 7.95286C33.3192 9.63324 32.9123 11.2939 32.4073 12.9261C31.3337 16.4072 29.8014 19.7312 27.8505 22.8113L27.7236 23.2001L32.0326 23.2411C32.4485 22.0645 32.8462 20.8277 33.2259 19.5307C34.3234 15.7457 35.1047 11.8769 35.5617 7.96371L34.4001 7.95286H37.7513V23.2158C37.7513 23.2158 30.6645 23.3685 24.1366 23.086C25.0984 21.4842 26.0789 19.7324 27.0344 17.8176C28.6231 14.6264 29.9921 11.3314 31.1318 7.95527H28.7138C28.1674 9.56649 27.5189 11.1415 26.772 12.6709C24.9518 16.4166 22.5205 19.8358 19.5771 22.7896L22.8611 23.0246C19.6091 22.8513 16.629 22.5565 14.9141 22.0638C15.0483 22.0959 15.2138 22.1292 15.46 22.1787L15.4608 22.1788L15.5825 22.2033L15.5828 22.2034L15.584 22.2037C15.826 22.2518 16.2243 22.3312 16.7286 22.4357C17.8168 21.1463 18.9424 19.7161 20.0583 18.1366C22.3117 14.9383 24.2722 11.5449 25.9161 7.99742H23.6527C23.6527 7.99742 19.7113 16.3454 12.8853 21.2762L12.4085 21.0811L12.4058 21.08C8.5087 19.4864 4.28504 17.7592 2.13078 16.3416L2.12001 16.3278C2.13122 16.336 2.14285 16.3441 2.15495 16.3524C2.26861 16.4319 2.44633 16.5354 2.58417 16.6149C2.87963 16.7862 3.1064 16.9007 3.19357 16.9447L3.19835 16.9471C3.5392 17.1205 3.80437 17.2634 4.03403 17.3873C4.18722 17.4699 4.32463 17.544 4.45816 17.6129C5.556 18.1806 7.80378 19.1197 8.08638 19.2378L8.10459 19.2454C9.04401 18.7361 10.0149 18.1847 10.9906 17.5431C12.8271 16.3392 15.4507 14.4129 18.599 11.5489L21.9739 7.95286H33.626Z" fill="#5D6782"/>
<path d="M19.8503 7.96491C19.6717 8.10254 19.4952 8.23758 19.3211 8.37002C19.3582 8.341 19.3953 8.31193 19.4323 8.28282C19.4823 8.24358 19.5322 8.20427 19.582 8.16488L19.6483 8.11246C19.6914 8.07829 19.7346 8.04408 19.7776 8.00982C19.8015 7.99085 19.8253 7.97186 19.8491 7.95286H21.1828L19.8503 7.96491Z" fill="#5D6782"/>
<path d="M13.6831 12.3519C14.0666 12.1082 14.4477 11.8609 14.8263 11.6099C14.7581 11.6566 14.691 11.7025 14.6249 11.7475C14.0415 12.1414 13.5614 12.4575 13.1538 12.7175C13.3292 12.6004 13.5057 12.4786 13.6831 12.3519Z" fill="#5D6782"/>
<path d="M6.30086 15.3932C7.33695 15.2635 8.54357 14.9876 9.86644 14.4609C8.26977 15.1258 7.12891 15.3241 6.30086 15.3932Z" fill="#5D6782"/>
<path d="M1.1748 14.4918L2.28427 15.1121C2.13777 15.0551 1.98882 14.9846 1.83456 14.8945C1.76692 14.8551 1.70509 14.8161 1.63188 14.7699L1.63011 14.7688C1.52696 14.7037 1.40105 14.6242 1.20466 14.5093L1.1748 14.4918Z" fill="#5D6782"/>
<path d="M0.301514 14.0036L0.733294 14.245C0.587035 14.1667 0.458369 14.1016 0.358335 14.0542C0.43812 14.1639 0.53355 14.2932 0.642498 14.4394L0.301514 14.0036Z" fill="#5D6782"/>
<path d="M13.0433 21.3408C13.4554 21.5095 13.8623 21.6764 14.261 21.8409C14.3132 21.8625 14.3675 21.8837 14.4239 21.9046C14.3181 21.8608 14.2419 21.8222 14.1575 21.7795C14.0631 21.7317 13.9584 21.6787 13.7907 21.6074C13.5474 21.5029 13.2977 21.4139 13.0433 21.3408Z" fill="#5D6782"/>
<path d="M37.7513 7.95286H40.0118C40.4686 11.8684 41.2496 15.7396 42.3468 19.5271C42.7264 20.8249 43.1242 22.0633 43.5401 23.2423L47.6826 23.2029C44.7383 23.2666 41.9752 23.263 40.1148 23.2475C39.4633 19.6964 38.9988 16.1138 38.7233 12.5144C38.6089 10.9502 38.5283 9.43366 38.4815 7.96491H37.7513V7.95286Z" fill="#5D6782"/>
<path d="M51.4366 23.0829C50.245 23.1351 49.0338 23.1727 47.8496 23.1993C47.8063 23.0699 47.7642 22.9406 47.7221 22.8113C45.7709 19.7275 44.2387 16.3999 43.1653 12.9153C42.662 11.2865 42.256 9.62946 41.9496 7.95286H44.4461C45.5856 11.3269 46.954 14.6199 48.5419 17.8091C49.4955 19.7227 50.4754 21.4794 51.4366 23.0829Z" fill="#5D6782"/>
<path d="M55.9232 22.7936C54.9777 22.8799 53.9678 22.9509 52.9267 23.009L55.9232 22.7936Z" fill="#5D6782"/>
<path d="M55.9942 22.7871C57.7242 22.6272 59.2344 22.4153 60.32 22.1356C60.2574 22.1484 60.1885 22.1622 60.1118 22.1776L59.9902 22.2021C59.7484 22.2503 59.3494 22.3309 58.844 22.4357C57.7559 21.1439 56.6303 19.7125 55.5144 18.1306C53.2609 14.9284 51.3005 11.5315 49.6566 7.98056H51.9199C51.9199 7.98056 55.8516 16.3163 62.6621 21.2554C62.8173 21.1919 62.9732 21.1281 63.1295 21.0642C64.769 20.3935 66.4655 19.6994 68.0404 19.015C67.7539 19.1367 67.5484 19.2226 67.4809 19.2508L67.468 19.2562C66.5298 18.7457 65.5578 18.1956 64.5821 17.5527C62.7456 16.3428 60.122 14.4166 56.9737 11.5513L53.6008 7.95286H46.8638C47.4092 9.56057 48.0561 11.1324 48.8006 12.6589C50.6199 16.4076 53.0507 19.8301 55.9942 22.7871Z" fill="#5D6782"/>
<path d="M62.2217 21.4358C61.9901 21.5308 61.7604 21.6251 61.533 21.7187C61.6005 21.6858 61.6794 21.6489 61.782 21.605C61.9265 21.5433 62.0732 21.4868 62.2217 21.4358Z" fill="#5D6782"/>
<path d="M75.1202 14.1052L75.1998 14.0036L73.0701 15.1943C73.2872 15.1267 73.5067 15.0357 73.7381 14.9005C73.8047 14.8617 73.8656 14.8231 73.9374 14.7777C74.0415 14.7118 74.1683 14.6314 74.368 14.5153C74.6559 14.3478 74.9244 14.2031 75.1202 14.1052Z" fill="#5D6782"/>
<path d="M69.2007 15.3932C68.4759 15.3025 67.6676 15.1402 66.7944 14.8706C67.8012 15.2043 68.5849 15.3345 69.2007 15.3932Z" fill="#5D6782"/>
<path d="M18.4092 8.64632L57.4887 8.9184C57.4887 8.9184 58.4922 7.66755 58.3725 4.97445C58.2528 2.28134 57.9227 2.77735 57.9227 2.77735C57.9227 2.77735 57.8284 5.887 56.9809 5.83041C56.1334 5.77383 18.4128 5.95923 18.4128 5.95923C18.4128 5.95923 17.8325 5.70641 17.772 2.92783C17.7116 0.149254 17.3839 4.81553 17.3839 4.81553C17.3839 4.81553 17.5447 6.78028 17.7587 7.8072" fill="#5D6782"/>
</svg>
