<?xml version="1.0" encoding="UTF-8"?>
<svg id="Layer_2" xmlns="http://www.w3.org/2000/svg" width="1408.49" height="410.71" viewBox="0 0 1408.49 410.71">
  <defs>
    <style>
      .cls-1 {
        fill: #ffffff;
      }
    </style>
  </defs>
  <g id="Layer_1-2" data-name="Layer_1">
    <g>
      <path class="cls-1" d="M1177.3,223.46c-6.73-.02-13.46-.04-20.19-.06,0,0,0,0,0,0-14.22,1.08-23.97,9.64-33.42,20.21-13.65-16.83-31.85-21.55-52.5-20.82-13.16.46-21.94,11.36-34.44,12.92,1.1-5.74,2.35-11.74-6.78-11.14-11.62.76-23.38-1.79-34.87,1.56h0c-4.83,2.43-2.85,6.92-2.87,10.5-.16,32.76-.18,65.53.03,98.29.02,3.42-2.42,8.1,3,10.16,13.26-.41,26.87,4.48,39.73-1.88.54-.06,1.08-.33,1.62-.86.09-21.39.19-42.78.28-64.17,3.06-13.29,8.83-23.68,25.12-21.34,16.57,2.38,15.9,15.14,16.01,27.24.06,7.37-.57,14.8.15,22.1,1.27,12.98-3.89,26.48,3.13,38.99,13.21-.56,26.81,4.46,39.62-1.95.53-.05,1.07-.33,1.61-.86.07-20.31.13-40.62.2-60.93,0,0,0,0,0,0,1.04-3.18,2.21-6.32,3.11-9.54,3.24-11.59,10.96-16.59,22.83-15.21,11.35,1.32,14.69,9.25,15.13,19.1.35,7.88-.24,15.83.58,23.65,1.61,15.19-4.2,30.86,3,45.65,13.28-.4,26.91,4.48,39.78-1.89.53-.06,1.07-.33,1.61-.85,1.16-30.72,2.29-61.45-.93-92.12-5.01-14.74-15.41-23.4-30.54-26.74Z"/>
      <path class="cls-1" d="M326.82,270.66c-4.78-26.9-41.47-52.67-76.16-51.38-39.54,1.46-66.19,20.53-74.24,54.85-.03,6.73-.05,13.47-.08,20.2h0c5.72,30.54,24.87,47.63,54.75,54.02,13.62,2.49,27.26,2.22,40.9.18,27.6-5.1,47.17-19.35,54.67-47.34,2.77-10.16,2.97-20.33.16-30.52h0ZM257.76,314.61c-4.28-.23-8.55-.46-12.83-.69-14.91-2.85-19.67-14.68-24.06-26.84h0c.93-4.35,1.86-8.7,2.78-13.06,4.64-6.88,10.57-12.42,17.67-16.74,6.81-.13,13.63-.26,20.44-.39,9.02,4.7,15.9,11.51,20.53,20.54-.24,5.59-.49,11.18-.73,16.77-5.15,10-13.47,16.36-23.81,20.39Z"/>
      <path class="cls-1" d="M1025.96,174.79c-.43.38-.94.7-1.25,1.15-.19.28-.24.95-.05,1.12,3.39,3.21,7.61,1.6,11.41,1.6,90.81.11,181.62.08,272.44.08,2.85,0,6.18.86,8.47-.29,7.33-3.68.34-5-1.57-7.13h0s0,0,0,0c-29.16-30.31-66.04-43.36-107.03-47.23-24-2.39-48-2.51-72,.04-8.98-2.25-17.19,2.67-25.32,4.3-32.81,6.6-63.46,18.79-85.11,46.36Z"/>
      <path class="cls-1" d="M1328.82,223.41c-13.65-3.38-27.31-3.89-41-.2-32.65,7.81-51.89,31.16-51.49,62.48.42,33.18,19.93,55.55,54.89,62.99,13.67,2.29,27.32,2.2,40.95-.36h0c19.98-5.18,36.49-14.15,40.72-36.61-13.47-4.92-26.99-4.09-40.54-.32h0c-5.85,3.4-11.7,6.81-17.55,10.21-4.37-.26-8.73-.51-13.1-.77-2-.94-3.93-2.05-6-2.8-9.36-3.39-12.87-11.34-11.57-19.66,1.42-9.05,10.32-4.47,15.69-4.62,21.66-.61,43.37-.85,65.03-.14,10.19.33,12.07-3.69,12.6-12.75,1.2-20.43-23.83-54.17-48.64-57.43ZM1301.72,247.68s0,0,0,0c4.39-.3,8.79-.6,13.18-.89,8.31,5.91,22.9,7.32,16.95,23.41,0,0,0,0,0,0-15.77-.33-31.54-.66-47.32-1-.26-11.89,8.66-16.55,17.19-21.52Z"/>
      <path class="cls-1" d="M736.75,223.31c-9.07-1.81-18.14-1.61-27.22-.06-12.18-1.75-17.18,11.52-27.76,13.11,1.18-8.14-1.06-12.73-10.66-11.91-10.07.87-20.23.73-30.36,1.04-1.25.68-3.59,1.35-3.6,2.04-.27,37.31-.34,74.61-.42,111.92,0,2.89.4,6.45,3.99,6.12,13.5-1.25,27.58,4.5,40.53-3.22.22-23.88.43-47.76.65-71.64,15.59-20.55,31.52-20.52,43.75.09.15,18.78-.09,37.57.68,56.32.25,6.03-4,13.48,3.68,18.18,13.01-.72,26.44,4.18,39.05-2.04.56.12,1.12-.17,1.7-.9,0-26.16-.02-52.33-.03-78.49-.33-22.62-16.05-32.5-34-40.55Z"/>
      <path class="cls-1" d="M450.04,226.24s0,0,0,0h0c-6.77-4.5-14.33-1.15-21.47-2.08-3.97-.51-8.68.05-8.3-5.76.71-10.82-4.13-22.98,7.11-31.48,0,0,0,0,0,0,0,0,0,0,0,0,4.42-.58,8.83-1.16,13.25-1.74,3.38,1.92,6.86,7.2,10-.25-.14-10.11-.28-20.22-.42-30.33h0c-30.34-15.99-65.37,1.66-74.27,37.41-.45,10.15-.9,20.3-1.36,30.46-1.98,1.1-3.96,2.19-5.94,3.29-7.24-.8-11.55,1.15-10.67,9.66.73,7.06.5,14.21.69,21.32h0c3.7,6.98,10.47,1.86,15.43,3.86.37,27.24.74,54.49,1.1,81.73.51.47,1.02.75,1.53.84,12.87,6.61,26.59,1.25,39.87,2.08,5.88-1.66,3.27-6.52,3.32-9.88.29-17.01.13-34.03.13-51.05q0-23.02,22.46-24.09c3-.15,7.12,1.55,8.12-3.49.6-10.18,1.62-20.37-.6-30.49h0Z"/>
      <path class="cls-1" d="M1081.43,117.51c7.28-6.32,6.03-13.58,2.38-21.11-1.7-5.83-6.1-9.73-10.91-12.5-30.72-17.72-56-43.49-88.34-58.76-5.62-.06-11.24-.13-16.87-.19-12.72,1.37-21.31,8.05-23.86,20.5-2.4,11.72,5.09,18.95,13.84,25.21,23.98,17.16,47.65,34.77,71.89,51.56,19.02,13.17,35.86,11.21,51.87-4.71Z"/>
      <path class="cls-1" d="M1403.87,38.48c-3.83-3.81-8.72-6.57-13.13-9.81-9.02-3.2-18.08-4.25-27.2-.36-33.48,17.11-62.52,40.68-91.35,64.15-14.71,11.97-8.68,27.26,12.22,37.11,9.04,3.12,18.09,3.33,27.15.09,30.53-17.46,57.48-40.01,86.16-60.09,11.57-8.1,14.11-23.16,6.14-31.1Z"/>
      <path class="cls-1" d="M1146.65,92.33c2.25,6.53,7.75,8.69,13.79,10.13,10.23,3.95,20.47,4.31,30.71.03,1.57-.52,3.3-.78,4.67-1.62,17.37-10.56,23.67-74.14,8.78-87.99-21.16-19.68-43.36-16.69-60.98,8.2-.56,23.82-5.98,47.84,3.04,71.26h0Z"/>
      <path class="cls-1" d="M144.59,225.51c-10.63-.31-21.26-.62-31.89-.92-5.68-.16-10.32.8-8.72,8.24-1.65,2.34-4.54,4.81-6.02,1.36-3.05-7.12-9.37-8.32-15.37-10.52-11.3-3.27-22.63-3-33.98-.32-38.93,12.04-57.99,49.4-44.08,87.12,5.78,15.67,16.92,26.45,32.53,32.93,23.38,9.7,45.03,5.83,65.63-9.16,2.1,16.16,1.01,30.28-14.33,36.32-12.23,4.82-26.03,7.69-35.32-7.22-1.98-3.18-6.14-2.44-9.54-2.44-9.72-.02-19.45.36-29.14-.1-13.53-.64-12.82,5.17-7.32,14.14,12.65,20.64,31.99,29.6,55.32,31.8,2.46.95,6.18-.18,6.72,3.98h6.88c1.69-5.64,6.96-2.22,10.19-3.98,35.82-3.66,55.59-20.01,61.54-50.86.26-41.63.55-83.25.73-124.88.01-2.44.79-5.98-3.83-5.49ZM69.14,311.81c-11.44-3.04-18.9-10.46-20.69-22.25-1.98-13.05,2.51-23.77,14.66-29.85,10.99-5.51,21.92-4.64,32.08,2.97,5.25,3.93,7.27,9.92,10.76,14.97h0c.21,4.26.42,8.52.63,12.78-10.58,19.42-21.26,25.69-37.45,21.39Z"/>
      <path class="cls-1" d="M602.42,225.5h0c-12.47-1.52-24.94-1.49-37.41-.01h0s0,0,0,0c-6.9,1.54-3.49,7.01-3.54,10.52-.3,21.74-.09,43.49-.04,65.24-7.73,15.07-20.47,16.65-35.05,12.53-14.19-4.01-9.2-16.21-9.99-25.39-.92-10.74-.22-21.63-.22-32.45.01-32.75.02-32.37-32.65-32.03-10.13.11-14.41,2.44-13.96,13.38.83,19.9-.03,39.87.36,59.8.6,30.43,9.83,41.99,39.98,51.24,4.29.39,8.59.77,12.89,1.16,0,0,0,0,0,0,14.1,5.78,28.41,2.27,42.12-.6,20.47-4.28,37.54-13.8,40.58-37.46.27-26.82.57-53.64.75-80.46.02-2.44.75-5.93-3.82-5.46Z"/>
      <path class="cls-1" d="M945.98,151.05c-14.38-4.58-28.77-4.53-43.15-.02h0s0,0,0,0c-2.79,27.21-.96,54.47-.8,81.71-9.33.06-14.75-9.66-24.12-9.51-11.39-4.25-22.76-3.41-34.13.09-23.4,6.06-37.15,21.67-44.12,43.98-2.61,11.26-2.39,22.54-.2,33.83,5.74,25.92,22.92,40.4,47.8,47.21,9.03,1.88,18.08,1.81,27.13.16,5.87-.31,11.73-2.07,15.5-6.09,7.52-8.02,11.55-3.42,15.78,2.93,12.99-.84,26.41,4.14,38.99-2.1.56.1,1.13-.21,1.71-.91,0,0,0,0,0,0h0c-.13-63.76-.26-127.52-.39-191.28h0ZM888.9,308.9c-16.32,9.83-35.15,2.11-44.94-18.45.26-4.26.53-8.52.79-12.78,4.14-9,11.22-15.06,19.83-19.59,0,0,0,0,0,0,5.45-.31,10.9-.62,16.36-.93,24.92,14.48,28.73,39.23,7.96,51.74Z"/>
    </g>
  </g>
</svg>