<svg width="138" height="58" viewBox="0 0 138 58" fill="none" xmlns="http://www.w3.org/2000/svg">
<path d="M69.2089 24.6012C68.0194 24.0001 67.076 23.1653 66.379 22.0884C65.6778 21.0157 65.3271 19.7886 65.3271 18.4112V7.08717C65.3271 5.71393 65.6778 4.48678 66.379 3.41407C67.0802 2.33718 68.0235 1.50239 69.2089 0.901335C70.3944 0.300282 71.705 -0.000244141 73.1283 -0.000244141C74.4765 -0.000244141 75.7162 0.300282 76.8432 0.901335C77.9701 1.50239 78.8634 2.33718 79.5228 3.41407C80.1865 4.49095 80.5162 5.71393 80.5162 7.08717V10.3512H74.6643V6.1522C74.6643 5.65132 74.5099 5.25062 74.1968 4.95009C73.8838 4.64957 73.4914 4.4993 73.0156 4.4993C72.5147 4.4993 72.0973 4.64957 71.7592 4.95009C71.4212 5.25062 71.2542 5.65132 71.2542 6.1522V19.3169C71.2542 19.8178 71.4212 20.231 71.7592 20.5566C72.0973 20.8822 72.5022 21.0449 72.978 21.0449C73.4539 21.0449 73.8462 20.8947 74.1593 20.5942C74.4723 20.2936 74.6268 19.8804 74.6268 19.3545V15.5687L72.2643 15.193L72.8654 10.8813L80.5162 11.8956V18.4195C80.5162 19.7969 80.1865 21.0199 79.5228 22.0968C78.8592 23.1737 77.966 24.0085 76.8432 24.6095C75.7162 25.2106 74.4807 25.5111 73.1283 25.5111C71.705 25.5111 70.3985 25.2106 69.2089 24.6095V24.6012Z" fill="white"/>
<path d="M81.2676 0.375488H89.5947C91.9947 0.375488 93.7436 0.964019 94.8455 2.13691C95.9433 3.31397 96.4942 5.03782 96.4942 7.31264C96.4942 9.26188 96.1019 10.7687 95.313 11.8331C94.5241 12.8974 93.1801 13.4776 91.2809 13.5778L91.2434 13.8032C92.6417 13.8032 93.6935 14.0035 94.3947 14.4042C95.096 14.8049 95.5593 15.3684 95.7847 16.0905C96.0101 16.8168 96.1228 17.8018 96.1228 19.054V25.1313H90.2333V18.3069C90.2333 17.3803 90.1122 16.7083 89.8785 16.2825C89.6406 15.8568 89.1981 15.6439 88.547 15.6439H87.1237V25.1313H81.2718V0.375488H81.2676ZM88.5053 11.8497C89.2315 11.8497 89.7074 11.6118 89.9286 11.136C90.154 10.6602 90.2667 9.75024 90.2667 8.39787C90.2667 7.12481 90.1581 6.21488 89.9494 5.68061C89.7366 5.14217 89.2816 4.87503 88.5804 4.87503H87.1195V11.8497H88.5053Z" fill="white"/>
<path d="M97.2412 0.375488H109.655V5.62635H103.093V10.3513H108.569V15.0762H103.093V19.8763H109.655V25.1272H97.2412V0.375488Z" fill="white"/>
<path d="M114.267 0.375488H122.669L126.417 25.1272H120.377L119.664 20.0266H117.001L116.437 25.1272H110.397L114.267 0.375488ZM119.518 15.9027L118.578 6.52793H118.128L117.301 15.9027H119.513H119.518Z" fill="white"/>
<path d="M128.183 5.62635H124.543V0.375488H137.745V5.62635H134.072V25.1272H128.183V5.62635Z" fill="white"/>
<path d="M66.5586 31.1045H77.1271C80.1741 31.1045 82.3947 31.693 83.7888 32.8659C85.1829 34.043 85.8841 35.7668 85.8841 38.0416C85.8841 39.9909 85.3832 41.4977 84.3856 42.5621C83.3881 43.6264 81.6809 44.2066 79.2683 44.3068L79.2224 44.5322C81.0006 44.5322 82.332 44.7325 83.2211 45.1332C84.1102 45.5339 84.6945 46.0974 84.9825 46.8195C85.2664 47.5458 85.4124 48.5308 85.4124 49.783V55.8603H77.941V49.0359C77.941 48.1093 77.7908 47.4373 77.4902 47.0115C77.1897 46.5858 76.6262 46.3729 75.7998 46.3729H73.9924V55.8603H66.5669V31.1087L66.5586 31.1045ZM75.7413 42.5829C76.6596 42.5829 77.2648 42.345 77.5487 41.8692C77.8325 41.3933 77.9786 40.4834 77.9786 39.1311C77.9786 37.858 77.845 36.9481 77.5737 36.4138C77.3024 35.8753 76.7222 35.6082 75.8373 35.6082H73.9799V42.5829H75.7413Z" fill="white"/>
<path d="M85.4033 31.1045H93.0667L94.7822 46.1809H95.4L98.0171 31.1045H105.68L108.014 46.1809H108.586L110.059 31.1045H117.722L113.06 55.8562H103.873L101.732 41.5311L99.1607 55.8562H90.3077L85.4033 31.1045Z" fill="white"/>
<path d="M135.667 32.9076C137.22 34.1098 138 35.6333 138 37.4823C138 39.3314 137.516 40.809 136.548 41.6813C135.579 42.5579 133.86 43.0671 131.385 43.2174V43.4428C133.1 43.568 134.432 43.8226 135.383 44.2108C136.335 44.599 137.011 45.1791 137.408 45.9555C137.804 46.7319 138 47.8046 138 49.182C138 51.1813 137.232 52.7966 135.692 54.0196C134.152 55.2468 132.002 55.8562 129.243 55.8562H118.675V31.1045H129.243C131.973 31.1045 134.114 31.7055 135.667 32.9035V32.9076ZM127.958 41.3433C128.876 41.3433 129.465 41.0928 129.719 40.5919C129.974 40.0911 130.099 39.3564 130.099 38.3797C130.099 37.4531 129.957 36.7602 129.669 36.2969C129.385 35.8336 128.813 35.604 127.954 35.604H126.096V41.3433H127.954H127.958ZM127.958 51.3566C128.813 51.3566 129.385 51.1271 129.673 50.6637C129.957 50.2004 130.103 49.5076 130.103 48.5809C130.103 47.358 129.961 46.4939 129.673 45.9931C129.389 45.4922 128.801 45.2417 127.912 45.2417H126.104V51.3566H127.962H127.958Z" fill="white"/>
<path d="M43.7812 1.05601L44.0985 0.95166C44.015 0.95166 43.9065 0.989226 43.7812 1.05601Z" fill="#8E1C1C"/>
<path d="M22.1722 28.7712C22.1722 28.7712 33.1664 27.0098 38.7554 30.1695C38.7554 30.1695 29.7062 14.8635 44.1022 0.95166L43.785 1.05601L39.7655 2.38333C39.7655 2.38333 7.89716 13.5237 0 40.1286C0 40.1286 8.99075 33.1414 22.9652 35.1532C28.4832 35.9463 32.845 38.6385 38.9641 40.8173C40.6879 41.4309 47.3579 44.1231 56.908 40.8173C56.908 40.8173 34.9278 27.7987 22.1722 28.7712Z" fill="#D8031C"/>
<path d="M29.9865 43.1674C35.1163 45.3879 40.5592 48.197 46.4152 47.7796C51.495 47.2913 56.1323 44.5907 60.0141 41.4644C55.4352 43.5305 50.4515 45.8638 45.426 45.5632C40.2712 45.2627 35.7549 42.7041 30.9674 40.7924C20.3822 36.4055 9.83869 36.8897 0.234375 43.3552C10.6109 38.6344 19.5474 38.5343 29.9823 43.1716L29.9865 43.1674Z" fill="#D8031C"/>
<path d="M23.4914 45.6966C28.3082 47.458 32.791 50.5384 37.8833 51.7572C45.8764 53.8024 54.191 50.8514 60.0805 45.346C54.6376 48.539 48.481 50.8431 42.1157 50.0459C35.671 49.4323 30.4244 45.3543 24.3095 43.3633C16.7504 40.8088 8.14367 41.5184 1.12305 45.25C8.43585 43.1004 16.3497 42.9584 23.4914 45.6924V45.6966Z" fill="white"/>
<path d="M40.771 55.426C36.1505 54.7331 32.0349 52.4082 27.8484 50.3505C21.3787 47.2075 17.5763 45.1246 10.1299 46.26C12.1292 46.4603 14.1536 46.5981 16.0903 47.1156C18.002 47.6082 19.8052 48.397 21.5081 49.3654C24.9725 51.4065 28.3743 53.5811 32.1393 55.3592C35.0318 56.72 38.1206 57.705 41.3637 57.7593C46.6397 57.6925 51.782 55.2925 55.6095 51.9324C50.8888 54.2448 45.9134 55.9352 40.771 55.4218V55.426Z" fill="#000030"/>
<path d="M43.5262 15.619L42.4118 18.3613L44.1314 19.8139V19.8222L43.2758 22.84L45.2083 23.9545C45.1708 24.0546 45.1374 24.159 45.104 24.2592C44.7575 25.4613 45.1081 26.7552 45.9137 27.7152L56.9038 40.8132C56.9038 40.8132 34.9236 27.7945 22.168 28.7671C22.168 28.7671 33.1622 27.0056 38.7512 30.1653C38.7512 30.1653 29.702 14.8594 44.098 0.94751C44.098 0.94751 43.9102 1.16873 43.6306 1.56943C41.6563 4.40774 40.9509 7.93892 41.6104 11.3365L41.6897 11.7414C41.9651 13.1689 42.5996 14.5004 43.5304 15.619H43.5262Z" fill="#8E1C1C"/>
</svg>
