<?xml version="1.0" encoding="UTF-8"?>
<svg id="Layer_2" xmlns="http://www.w3.org/2000/svg" width="1247.46" height="133.71" viewBox="0 0 1247.46 133.71">
  <defs>
    <style>
      .cls-1 {
        fill: #ffffff;
      }
    </style>
  </defs>
  <g id="Layer_1-2" data-name="Layer_1">
    <g>
      <path class="cls-1" d="M57.43,110.85c-.81.53-.93,1.07-1.09,1.6-6.11,19.12-29.71,24.34-44.33,13.44C4.13,120.03.1,112.07.07,102.3-.02,78.13-.02,53.96.06,29.79.1,14.84,9.63,3.3,24.33.67c13.61-2.44,27.36,4.75,31.96,18.62.27.81.34,1.7,1.16,2.53,2.25-3.04,4.44-6.07,6.69-9.05C70.35,4.57,78.61.1,88.88.4c11.36.34,20.18,5.66,25.29,15.89,5.1,10.2,4.18,20.32-2.38,29.74-4.16,5.98-8.48,11.84-12.8,17.7-.94,1.27-.98,2.16-.01,3.46,4.22,5.66,8.35,11.39,12.45,17.14,10.45,14.66,6.47,33.92-8.87,43.05-12.9,7.67-30.1,4.14-39.09-8.05-2.02-2.75-3.96-5.55-6.05-8.47Z"/>
      <path class="cls-1" d="M378.21,110.24c-1.98,7.1-5.39,12.28-10.77,16-16.32,11.29-40.03,3.89-45.35-16.92-.69-2.7-.79-5.44-.79-8.2,0-23.61.06-47.22-.03-70.84-.04-10.62,3.99-19.12,12.74-25.12,14.78-10.12,37.66-4.61,43.7,14.89.16.52.17,1.1.96,1.44,2.07-2.18,3.64-4.81,5.37-7.31,4.45-6.4,10.29-10.79,17.86-12.86,17.44-4.76,36.78,8.54,36.24,28.29-.17,6.16-1.9,11.69-5.53,16.66-4.1,5.61-8.17,11.24-12.23,16.88-1.75,2.43-2.1,1.74.06,4.73,4.07,5.63,8.17,11.24,12.23,16.88,11.99,16.69,3.91,39.85-15.85,45.51-12.11,3.47-25.09-1.08-32.51-11.4-1.91-2.65-3.78-5.33-6.11-8.62Z"/>
      <path class="cls-1" d="M1191.17,114.72c-1.14.64-1.19,1.49-1.51,2.15-4.62,9.79-12.29,15.48-23.05,16.5-11.46,1.09-20.4-3.61-26.94-12.93-3.31-4.72-5.09-10.08-5.1-15.83-.05-23.83,0-47.67.09-71.5.01-4.21.7-8.38,2.07-12.36,3.58-10.42,11.17-16.04,21.84-17.83,2.94-.49,5.91-.67,8.9-.66,12.47.04,24.95-.14,37.42.06,11.92.19,22.13,4.58,30.2,13.5,13.03,14.4,13.47,37,1.03,51.21-.51.58-1.04,1.15-1.6,1.67q-2.71,2.52-.68,5.78c3.32,5.34,6.73,10.62,9.92,16.04,6.57,11.17,4.97,29.36-9.27,38.59-13.53,8.76-31.88,4.59-40.24-9.18-1.03-1.69-2-3.41-3.06-5.23Z"/>
      <path class="cls-1" d="M841.86,114.8c-.95.39-1,.99-1.2,1.47-4.29,10.34-14.8,18.15-28.62,17.21-11.02-.75-21.61-9.13-25.29-20.41-.89-2.73-1.49-5.55-1.49-8.43.02-23.83.04-47.67.11-71.5.01-3.65.62-7.23,1.63-10.75,3.23-11.3,10.93-17.48,22.28-19.45,2.94-.51,5.91-.67,8.9-.66,12.36.04,24.73-.1,37.09.05,11.92.15,22.13,4.46,30.32,13.27,10.67,11.47,13.35,29.79,6.41,43.83-1.93,3.9-4.44,7.37-7.82,10.14-1.37,1.12-1.48,2.04-.51,3.55,3.51,5.48,6.97,10.99,10.29,16.58,6.42,10.79,5.42,24.27-2.36,33.75-11.64,14.16-34.36,13.53-45.16-1.31-1.68-2.3-3.04-4.84-4.58-7.33Z"/>
      <path class="cls-1" d="M1107.58,52.13c10.18,8.02,9.32,24.99.18,31.82.18.79.95.79,1.48.94,16.19,4.68,21.49,24.97,12.11,38.24-4.53,6.41-10.73,10.26-18.68,10.33-16.78.15-33.57.1-50.35-.06-5.94-.06-11.57-1.7-16.56-5.07-6.77-4.58-9.92-11.34-11.19-19.14-.52-3.16-.69-6.35-.69-9.56.03-21.2.03-42.39,0-63.59,0-4.1.35-8.15,1.31-12.14,2.99-12.38,11.37-19.25,23.91-20.97,3.39-.47,6.81-.57,10.24-.56,13.81.04,27.61-.09,41.42.05,9.58.1,16.96,4.39,21.83,12.67,6.58,11.18,3.4,26.37-6.86,33.43-2.47,1.7-5.28,2.64-8.15,3.61Z"/>
      <path class="cls-1" d="M289.91,65.71c2.05,1.13,3.6,1.93,5.1,2.82,12.33,7.33,16.85,18.85,14.71,32.41-2.11,13.36-10.47,21.77-22.72,26.54-9.86,3.84-20.12,4.61-30.6,3.39-10.95-1.28-21.03-4.83-30.02-11.23-13.35-9.51-21.65-22.43-25.06-38.4-3.81-17.84-1.68-34.92,7.77-50.71,9.26-15.49,23.02-25,40.6-28.82,11.61-2.53,23.23-2.33,34.64,1.29,7.5,2.38,14,6.36,19.01,12.61,9.11,11.38,9.3,30.28-.13,40.78-2.84,3.16-6.23,5.57-9.95,7.58-.96.52-1.93,1.02-3.36,1.77Z"/>
      <path class="cls-1" d="M713.65,109.12c-1.26,2.15-2.25,3.96-3.34,5.7-4.2,6.7-9.49,12.2-17.12,14.93-15.32,5.5-36.46-2.07-41.38-21.4-1.85-7.25-.91-14.27,1.95-21.02,9.2-21.71,18.46-43.4,27.85-65.02,3.17-7.3,7.73-13.6,14.78-17.77,15.04-8.91,35.77-4.26,45.53,10.18,3.48,5.16,5.7,10.93,8.13,16.6,7.81,18.23,15.58,36.48,23.38,54.72,2.74,6.41,3.94,12.98,2.83,20-1.82,11.52-11.1,22.02-24.55,24.67-14.73,2.91-26.55-2.6-34.72-15.94-1.07-1.75-2.09-3.53-3.33-5.64Z"/>
      <path class="cls-1" d="M469.7,80.29c-2.4-2.25-4.22-3.97-6.05-5.67-3.56-3.3-6.94-6.77-10.09-10.49-14.05-16.58-9.3-46.07,12.02-57.22,8.18-4.28,16.91-6.3,26.06-6.66,10.3-.41,20.52.1,30.46,3.24,4.35,1.37,8.41,3.29,12.06,6.04,9.63,7.26,11.91,19.31,9.09,28.8-2.21,7.43-7.91,11.42-15.1,13.52-.74.22-1.49.39-2.23.59-.09.03-.15.15-.37.39,1.33,1.98,3.35,3.31,5.08,4.9,4,3.66,7.72,7.53,11.08,11.81,12.09,15.4,8.96,42.21-9.5,54.41-7.05,4.66-14.8,7.41-23.06,8.58-13.23,1.87-26.43,1.49-39.43-1.89-5.7-1.48-11.01-3.86-15.62-7.66-8.03-6.61-11.46-18.4-7.99-28.17,2.39-6.74,7.39-10.81,14.03-13.01,2.83-.94,5.78-1.33,9.58-1.5Z"/>
      <path class="cls-1" d="M606.42,2.37c9.83,0,19.66-.21,29.48.06,11.73.32,20.46,5.82,25.45,16.51,7.94,17.04-2.87,36.8-21.48,39.6-2.36.35-2.4.35-2.4,2.89-.01,14.02.01,28.03-.02,42.05-.02,8.35-2.91,15.56-8.98,21.34-14.97,14.25-41.16,11.05-50.55-9.13-2.05-4.4-2.61-9.07-2.61-13.86.01-12.91,0-25.82,0-38.74,0-.66-.07-1.33.01-1.98.22-1.82-.57-2.34-2.36-2.64-10.51-1.75-17.99-7.63-22.04-17.44-6.54-15.87,2.79-33.87,19.45-37.83,2.46-.58,4.99-.85,7.55-.84,9.49.03,18.99.01,28.48.01Z"/>
      <path class="cls-1" d="M957.95,2.37c9.72,0,19.44-.1,29.15.03,9,.12,16.63,3.51,22.13,10.73,6.52,8.56,7.97,18.15,3.92,28.12-4,9.83-11.5,15.66-22.1,17.28-2.24.34-2.28.31-2.28,2.99-.01,13.91-.36,27.83.1,41.72.44,13.52-9.48,27.84-26.97,30.04-13.75,1.73-26-4.73-31.99-16.48-2.15-4.21-2.98-8.71-2.96-13.43.06-13.36.02-26.71.02-40.07,0-.66.01-1.32,0-1.99q-.06-2.41-2.53-2.81c-12.11-2-21.56-10.93-23.58-22.9-2.09-12.43,3.21-23.08,12.84-29.04,4.62-2.86,9.7-4.17,15.11-4.19,9.72-.04,19.44-.01,29.15-.01Z"/>
      <path class="cls-1" d="M125.87,65.84c0-11.37-.01-22.74,0-34.11.03-15.93,11.83-29.28,27.66-31.33,15.52-2.01,30.34,8.13,34.26,23.44.63,2.46.98,4.97.98,7.53,0,22.85.08,45.7-.03,68.54-.07,15.53-10.36,27.91-25.54,31.11-16.4,3.46-33.29-7.7-36.65-24.18-.46-2.28-.71-4.56-.7-6.9.04-11.37.02-22.74.02-34.11Z"/>
    </g>
  </g>
</svg>