<svg width="430" height="455" viewBox="0 0 430 455" fill="none" xmlns="http://www.w3.org/2000/svg">
<path d="M324.099 325.515C305.86 345.541 282.438 360.132 256.424 367.677C230.409 375.222 202.815 375.426 176.691 368.267C150.568 361.107 126.933 346.863 108.4 327.109C89.8672 307.355 77.1579 282.861 71.6773 256.334C66.1968 229.808 68.1585 202.283 77.3455 176.802C86.5326 151.32 102.587 128.876 123.734 111.95C144.881 95.0242 170.297 84.2758 197.172 80.8934C224.047 77.511 251.333 81.6262 276.015 92.7842L231.1 192.137C224.741 189.262 217.711 188.202 210.787 189.073C203.864 189.945 197.315 192.714 191.867 197.075C186.419 201.435 182.283 207.218 179.916 213.783C177.549 220.348 177.043 227.439 178.455 234.273C179.867 241.108 183.142 247.418 187.917 252.507C192.691 257.597 198.781 261.267 205.511 263.111C212.241 264.956 219.351 264.903 226.053 262.959C232.755 261.016 238.79 257.256 243.489 252.097L324.099 325.515Z" fill="#FFECEC"/>
<circle cx="215.256" cy="227.256" r="158.87" transform="rotate(42.3265 215.256 227.256)" stroke="white" stroke-width="4"/>
<path d="M275.315 92.5856C303.683 105.127 327.352 126.328 342.93 153.149C358.508 179.969 365.196 211.033 362.034 241.888L253.874 230.805C254.695 222.791 252.958 214.723 248.912 207.757C244.866 200.791 238.718 195.285 231.351 192.027L275.315 92.5856Z" fill="#0C47DE"/>
<path d="M361.946 242.736C358.605 273.572 345.588 302.559 324.76 325.542L244.193 252.532C249.603 246.562 252.984 239.034 253.851 231.025L361.946 242.736Z" fill="#F94E4E"/>
<path d="M128.216 164.4H120.224V160.8H132.104V164.256L125.912 186H121.88L128.216 164.4ZM140.614 186.36C138.67 186.36 137.182 185.808 136.15 184.704C135.118 183.6 134.602 182.04 134.602 180.024V166.776C134.602 164.76 135.118 163.2 136.15 162.096C137.182 160.992 138.67 160.44 140.614 160.44C142.558 160.44 144.046 160.992 145.078 162.096C146.11 163.2 146.626 164.76 146.626 166.776V180.024C146.626 182.04 146.11 183.6 145.078 184.704C144.046 185.808 142.558 186.36 140.614 186.36ZM140.614 182.76C141.982 182.76 142.666 181.932 142.666 180.276V166.524C142.666 164.868 141.982 164.04 140.614 164.04C139.246 164.04 138.562 164.868 138.562 166.524V180.276C138.562 181.932 139.246 182.76 140.614 182.76ZM152.904 174.804C151.656 174.804 150.708 174.456 150.06 173.76C149.412 173.064 149.088 172.068 149.088 170.772V164.472C149.088 163.176 149.412 162.18 150.06 161.484C150.708 160.788 151.656 160.44 152.904 160.44C154.152 160.44 155.1 160.788 155.748 161.484C156.396 162.18 156.72 163.176 156.72 164.472V170.772C156.72 172.068 156.396 173.064 155.748 173.76C155.1 174.456 154.152 174.804 152.904 174.804ZM162.048 160.8H164.568L154.812 186H152.292L162.048 160.8ZM152.904 172.536C153.768 172.536 154.2 172.008 154.2 170.952V164.292C154.2 163.236 153.768 162.708 152.904 162.708C152.04 162.708 151.608 163.236 151.608 164.292V170.952C151.608 172.008 152.04 172.536 152.904 172.536ZM163.956 186.36C162.708 186.36 161.76 186.012 161.112 185.316C160.464 184.62 160.14 183.624 160.14 182.328V176.028C160.14 174.732 160.464 173.736 161.112 173.04C161.76 172.344 162.708 171.996 163.956 171.996C165.204 171.996 166.152 172.344 166.8 173.04C167.448 173.736 167.772 174.732 167.772 176.028V182.328C167.772 183.624 167.448 184.62 166.8 185.316C166.152 186.012 165.204 186.36 163.956 186.36ZM163.956 184.092C164.82 184.092 165.252 183.564 165.252 182.508V175.848C165.252 174.792 164.82 174.264 163.956 174.264C163.092 174.264 162.66 174.792 162.66 175.848V182.508C162.66 183.564 163.092 184.092 163.956 184.092Z" fill="#000001"/>
<path d="M268.404 192.264C268.404 190.464 268.692 188.928 269.268 187.656C269.844 186.36 270.876 184.932 272.364 183.372C273.828 181.812 274.836 180.48 275.388 179.376C275.964 178.272 276.252 177.12 276.252 175.92C276.252 174.84 276.072 174.096 275.712 173.688C275.376 173.256 274.872 173.04 274.2 173.04C272.832 173.04 272.148 173.868 272.148 175.524V178.224H268.404V175.776C268.404 173.736 268.908 172.176 269.916 171.096C270.924 169.992 272.388 169.44 274.308 169.44C276.228 169.44 277.692 169.992 278.7 171.096C279.708 172.176 280.212 173.736 280.212 175.776C280.212 177.312 279.84 178.812 279.096 180.276C278.376 181.74 277.116 183.42 275.316 185.316C274.14 186.564 273.348 187.584 272.94 188.376C272.532 189.144 272.328 189.972 272.328 190.86V191.4H279.852V195H268.404V192.264ZM288.614 195.36C286.67 195.36 285.182 194.808 284.15 193.704C283.118 192.6 282.602 191.04 282.602 189.024V175.776C282.602 173.76 283.118 172.2 284.15 171.096C285.182 169.992 286.67 169.44 288.614 169.44C290.558 169.44 292.046 169.992 293.078 171.096C294.11 172.2 294.626 173.76 294.626 175.776V189.024C294.626 191.04 294.11 192.6 293.078 193.704C292.046 194.808 290.558 195.36 288.614 195.36ZM288.614 191.76C289.982 191.76 290.666 190.932 290.666 189.276V175.524C290.666 173.868 289.982 173.04 288.614 173.04C287.246 173.04 286.562 173.868 286.562 175.524V189.276C286.562 190.932 287.246 191.76 288.614 191.76ZM300.904 183.804C299.656 183.804 298.708 183.456 298.06 182.76C297.412 182.064 297.088 181.068 297.088 179.772V173.472C297.088 172.176 297.412 171.18 298.06 170.484C298.708 169.788 299.656 169.44 300.904 169.44C302.152 169.44 303.1 169.788 303.748 170.484C304.396 171.18 304.72 172.176 304.72 173.472V179.772C304.72 181.068 304.396 182.064 303.748 182.76C303.1 183.456 302.152 183.804 300.904 183.804ZM310.048 169.8H312.568L302.812 195H300.292L310.048 169.8ZM300.904 181.536C301.768 181.536 302.2 181.008 302.2 179.952V173.292C302.2 172.236 301.768 171.708 300.904 171.708C300.04 171.708 299.608 172.236 299.608 173.292V179.952C299.608 181.008 300.04 181.536 300.904 181.536ZM311.956 195.36C310.708 195.36 309.76 195.012 309.112 194.316C308.464 193.62 308.14 192.624 308.14 191.328V185.028C308.14 183.732 308.464 182.736 309.112 182.04C309.76 181.344 310.708 180.996 311.956 180.996C313.204 180.996 314.152 181.344 314.8 182.04C315.448 182.736 315.772 183.732 315.772 185.028V191.328C315.772 192.624 315.448 193.62 314.8 194.316C314.152 195.012 313.204 195.36 311.956 195.36ZM311.956 193.092C312.82 193.092 313.252 192.564 313.252 191.508V184.848C313.252 183.792 312.82 183.264 311.956 183.264C311.092 183.264 310.66 183.792 310.66 184.848V191.508C310.66 192.564 311.092 193.092 311.956 193.092Z" fill="white"/>
<path d="M289.02 254.776H284.88V251.968C286.008 251.968 286.908 251.872 287.58 251.68C288.276 251.488 288.828 251.176 289.236 250.744C289.644 250.288 290.004 249.64 290.316 248.8H292.98V274H289.02V254.776ZM303.614 274.36C301.67 274.36 300.182 273.808 299.15 272.704C298.118 271.6 297.602 270.04 297.602 268.024V254.776C297.602 252.76 298.118 251.2 299.15 250.096C300.182 248.992 301.67 248.44 303.614 248.44C305.558 248.44 307.046 248.992 308.078 250.096C309.11 251.2 309.626 252.76 309.626 254.776V268.024C309.626 270.04 309.11 271.6 308.078 272.704C307.046 273.808 305.558 274.36 303.614 274.36ZM303.614 270.76C304.982 270.76 305.666 269.932 305.666 268.276V254.524C305.666 252.868 304.982 252.04 303.614 252.04C302.246 252.04 301.562 252.868 301.562 254.524V268.276C301.562 269.932 302.246 270.76 303.614 270.76ZM315.904 262.804C314.656 262.804 313.708 262.456 313.06 261.76C312.412 261.064 312.088 260.068 312.088 258.772V252.472C312.088 251.176 312.412 250.18 313.06 249.484C313.708 248.788 314.656 248.44 315.904 248.44C317.152 248.44 318.1 248.788 318.748 249.484C319.396 250.18 319.72 251.176 319.72 252.472V258.772C319.72 260.068 319.396 261.064 318.748 261.76C318.1 262.456 317.152 262.804 315.904 262.804ZM325.048 248.8H327.568L317.812 274H315.292L325.048 248.8ZM315.904 260.536C316.768 260.536 317.2 260.008 317.2 258.952V252.292C317.2 251.236 316.768 250.708 315.904 250.708C315.04 250.708 314.608 251.236 314.608 252.292V258.952C314.608 260.008 315.04 260.536 315.904 260.536ZM326.956 274.36C325.708 274.36 324.76 274.012 324.112 273.316C323.464 272.62 323.14 271.624 323.14 270.328V264.028C323.14 262.732 323.464 261.736 324.112 261.04C324.76 260.344 325.708 259.996 326.956 259.996C328.204 259.996 329.152 260.344 329.8 261.04C330.448 261.736 330.772 262.732 330.772 264.028V270.328C330.772 271.624 330.448 272.62 329.8 273.316C329.152 274.012 328.204 274.36 326.956 274.36ZM326.956 272.092C327.82 272.092 328.252 271.564 328.252 270.508V263.848C328.252 262.792 327.82 262.264 326.956 262.264C326.092 262.264 325.66 262.792 325.66 263.848V270.508C325.66 271.564 326.092 272.092 326.956 272.092Z" fill="white"/>
</svg>
