<svg width="1276" height="608" viewBox="0 0 1276 608" fill="none" xmlns="http://www.w3.org/2000/svg">
<g clip-path="url(#clip0_475_202)">
<rect width="1276" height="608" rx="13.702" fill="#010819"/>
<path fill-rule="evenodd" clip-rule="evenodd" d="M1053.99 426.993C1053.97 426.991 1053.95 426.991 1053.93 426.993H987.039C987.018 426.991 986.998 426.991 986.977 426.993H920.094C920.073 426.991 920.052 426.991 920.032 426.993H853.141C853.121 426.991 853.1 426.991 853.08 426.993H786.187C786.167 426.991 786.147 426.991 786.127 426.993H719.242C719.222 426.991 719.201 426.991 719.18 426.993H652.291C652.281 426.992 652.271 426.991 652.261 426.991C652.25 426.991 652.24 426.992 652.23 426.993H585.339C585.318 426.991 585.298 426.991 585.277 426.993L518.386 426.993C518.366 426.991 518.346 426.991 518.326 426.993L451.442 426.993C451.422 426.991 451.401 426.991 451.381 426.993H384.489C384.469 426.991 384.448 426.991 384.428 426.993H317.538C317.517 426.991 317.496 426.991 317.476 426.993H250.593C250.572 426.991 250.552 426.991 250.531 426.993H183.641C183.621 426.991 183.6 426.991 183.579 426.993H116.688C116.668 426.991 116.647 426.991 116.626 426.993H49.7359C49.7157 426.991 49.6951 426.991 49.6743 426.993H0.565839C0.389865 426.993 0.24721 427.135 0.24721 427.311C0.24721 427.487 0.389865 427.63 0.565839 427.63H46.7992L18.4104 433.946H0.56483C0.388856 433.946 0.246202 434.089 0.246202 434.265C0.246202 434.441 0.388856 434.583 0.56483 434.583H15.5462L0.494622 437.932C0.322849 437.97 0.21458 438.141 0.252798 438.312C0.291015 438.484 0.461246 438.592 0.63302 438.554L18.4805 434.583H86.2804L58.005 441.659H0.56483C0.388856 441.659 0.246202 441.802 0.246202 441.978C0.246202 442.154 0.388856 442.297 0.56483 442.297H55.4586L23.6279 450.263H0.56483C0.388856 450.263 0.246202 450.405 0.246202 450.581C0.246202 450.757 0.388856 450.9 0.56483 450.9H21.0815L0.486468 456.054C0.315758 456.097 0.212004 456.27 0.254725 456.44C0.297446 456.611 0.470465 456.715 0.641174 456.672L23.7065 450.9H99.972L68.4195 459.924H0.56483C0.388856 459.924 0.246202 460.067 0.246202 460.243C0.246202 460.419 0.388856 460.561 0.56483 460.561H66.1915L30.2106 470.852H0.56483C0.388856 470.852 0.246202 470.995 0.246202 471.171C0.246202 471.347 0.388856 471.49 0.56483 471.49H27.9825L0.477212 479.356C0.308023 479.405 0.210095 479.581 0.258485 479.75C0.306875 479.92 0.483258 480.017 0.652448 479.969L30.2999 471.49H117.15L81.7178 483.312H0.56483C0.388856 483.312 0.246202 483.455 0.246202 483.631C0.246202 483.807 0.388856 483.949 0.56483 483.949H79.808L38.7572 497.647H0.56483C0.388856 497.647 0.246202 497.789 0.246202 497.965C0.246202 498.141 0.388856 498.284 0.56483 498.284H36.8474L0.463979 510.424C0.297053 510.48 0.206885 510.66 0.262583 510.827C0.318281 510.994 0.498754 511.084 0.665681 511.029L38.8607 498.284H139.386L99.3541 514.312H0.56483C0.388856 514.312 0.246202 514.455 0.246202 514.631C0.246202 514.807 0.388856 514.949 0.56483 514.949H97.7625L50.3483 533.934H0.56483C0.388856 533.934 0.246202 534.076 0.246202 534.252C0.246202 534.428 0.388856 534.571 0.56483 534.571H48.7567L0.447405 553.913C0.284039 553.979 0.20463 554.164 0.270039 554.327C0.335449 554.491 0.520908 554.57 0.684273 554.505L50.4711 534.571H169.411L123.847 557.372H0.56483C0.388856 557.372 0.246202 557.515 0.246202 557.691C0.246202 557.867 0.388856 558.01 0.56483 558.01H122.574L66.9187 585.861H0.56483C0.388856 585.861 0.246202 586.004 0.246202 586.18C0.246202 586.356 0.388856 586.499 0.56483 586.499H65.6453L0.423245 619.138C0.265877 619.217 0.202146 619.408 0.280898 619.565C0.359651 619.723 0.551064 619.787 0.708433 619.708L67.0693 586.499H212.227L160.166 621.231H0.56483C0.388856 621.231 0.246202 621.373 0.246202 621.549C0.246202 621.725 0.388856 621.868 0.56483 621.868H159.211L92.5931 666.312H0.56483C0.388856 666.312 0.246202 666.454 0.246202 666.63C0.246202 666.806 0.388856 666.949 0.56483 666.949H91.6379L3.50761 725.745H0.56483C0.388856 725.745 0.246202 725.888 0.246202 726.064C0.246202 726.24 0.388856 726.382 0.56483 726.382H2.55239L0.387999 727.826C0.241612 727.924 0.202113 728.122 0.299774 728.268C0.397435 728.414 0.595275 728.454 0.741661 728.356L3.70062 726.382H218.964L137.711 807.67H0.56483C0.388856 807.67 0.246202 807.813 0.246202 807.989C0.246202 808.165 0.388856 808.308 0.56483 808.308H137.074L0.616426 944.825C0.492021 944.949 0.492065 945.151 0.616525 945.275C0.630354 945.289 0.645138 945.302 0.660664 945.312C0.712474 945.349 0.775636 945.37 0.843798 945.37H1302.79C1302.96 945.37 1303.11 945.227 1303.11 945.052C1303.11 944.955 1303.06 944.869 1303 944.811L1166.79 808.308H1304.18C1304.36 808.308 1304.5 808.165 1304.5 807.989C1304.5 807.813 1304.36 807.67 1304.18 807.67H1166.15L1085.04 726.382H1300.3L1304.01 728.857C1304.15 728.954 1304.35 728.915 1304.45 728.769C1304.55 728.622 1304.51 728.425 1304.36 728.327L1301.45 726.382H1304.18C1304.36 726.382 1304.5 726.24 1304.5 726.064C1304.5 725.888 1304.36 725.745 1304.18 725.745H1300.5L1212.47 666.949H1304.18C1304.36 666.949 1304.5 666.806 1304.5 666.63C1304.5 666.454 1304.36 666.312 1304.18 666.312H1211.51L1144.97 621.868H1304.18C1304.36 621.868 1304.5 621.725 1304.5 621.549C1304.5 621.373 1304.36 621.231 1304.18 621.231H1144.02L1092.02 586.499H1237.18L1304.04 619.99C1304.2 620.069 1304.39 620.006 1304.47 619.848C1304.55 619.691 1304.49 619.499 1304.33 619.421L1238.6 586.499H1304.18C1304.36 586.499 1304.5 586.356 1304.5 586.18C1304.5 586.004 1304.36 585.861 1304.18 585.861H1237.33L1181.72 558.01H1304.18C1304.36 558.01 1304.5 557.867 1304.5 557.691C1304.5 557.515 1304.36 557.372 1304.18 557.372H1180.45L1134.92 534.571H1253.87L1304.07 554.68C1304.23 554.746 1304.42 554.666 1304.48 554.503C1304.55 554.34 1304.47 554.154 1304.3 554.089L1255.59 534.571H1304.18C1304.36 534.571 1304.5 534.428 1304.5 534.252C1304.5 534.076 1304.36 533.934 1304.18 533.934H1254L1206.61 514.949H1304.18C1304.36 514.949 1304.5 514.807 1304.5 514.631C1304.5 514.455 1304.36 514.312 1304.18 514.312H1205.02L1165.02 498.284H1265.53L1304.08 511.156C1304.25 511.211 1304.43 511.121 1304.49 510.954C1304.54 510.788 1304.45 510.607 1304.29 510.551L1267.54 498.284H1304.18C1304.36 498.284 1304.5 498.141 1304.5 497.965C1304.5 497.789 1304.36 497.647 1304.18 497.647H1265.64L1224.61 483.949H1304.18C1304.36 483.949 1304.5 483.807 1304.5 483.631C1304.5 483.455 1304.36 483.312 1304.18 483.312H1222.7L1187.29 471.49H1274.14L1304.1 480.064C1304.27 480.112 1304.44 480.014 1304.49 479.845C1304.54 479.676 1304.44 479.5 1304.27 479.451L1276.45 471.49H1304.18C1304.36 471.49 1304.5 471.347 1304.5 471.171C1304.5 470.995 1304.36 470.852 1304.18 470.852H1274.22L1238.26 460.561H1304.18C1304.36 460.561 1304.5 460.419 1304.5 460.243C1304.5 460.067 1304.36 459.924 1304.18 459.924H1236.04L1204.5 450.9H1280.78L1304.11 456.741C1304.28 456.783 1304.45 456.68 1304.49 456.509C1304.54 456.338 1304.43 456.165 1304.26 456.122L1283.4 450.9H1304.18C1304.36 450.9 1304.5 450.757 1304.5 450.581C1304.5 450.405 1304.36 450.263 1304.18 450.263H1280.86L1249.04 442.297H1304.18C1304.36 442.297 1304.5 442.154 1304.5 441.978C1304.5 441.802 1304.36 441.659 1304.18 441.659H1246.49L1218.23 434.583H1286.03L1304.12 438.609C1304.29 438.647 1304.46 438.539 1304.5 438.367C1304.53 438.195 1304.43 438.025 1304.25 437.987L1288.96 434.583H1304.18C1304.36 434.583 1304.5 434.441 1304.5 434.265C1304.5 434.089 1304.36 433.946 1304.18 433.946H1286.1L1257.71 427.63H1304.19C1304.36 427.63 1304.5 427.487 1304.5 427.311C1304.5 427.135 1304.36 426.993 1304.19 426.993H1254.84C1254.82 426.991 1254.8 426.991 1254.78 426.993H1187.9C1187.87 426.991 1187.85 426.991 1187.83 426.993H1120.94C1120.92 426.991 1120.9 426.991 1120.88 426.993H1053.99ZM1210.37 666.312L1143.83 621.868H980.747L1025.1 666.312H1210.37ZM1024.2 666.312L979.847 621.868H816.553L838.708 666.312H1024.2ZM839.026 666.949H1024.83L1083.5 725.745H868.335L839.026 666.949ZM837.996 666.312L815.841 621.868H652.411L652.372 666.312H837.996ZM652.372 666.949H838.314L867.623 725.745H652.321L652.372 666.949ZM651.735 666.312L651.773 621.868H488.343L466.112 666.312H651.735ZM465.793 666.949H651.734L651.683 725.745H436.382L465.793 666.949ZM465.399 666.312L487.631 621.868H324.333L279.909 666.312H465.399ZM279.272 666.949H465.08L435.67 725.745H220.502L279.272 666.949ZM279.008 666.312L323.432 621.868H160.359L93.7414 666.312H279.008ZM92.7862 666.949H278.371L219.601 725.745H4.65583L92.7862 666.949ZM1025.73 666.949H1211.32L1299.35 725.745H1084.4L1025.73 666.949ZM161.314 621.231H324.069L358.786 586.499H213.375L161.314 621.231ZM324.97 621.231H487.949L505.323 586.499H359.687L324.97 621.231ZM488.662 621.231H651.774L651.804 586.499H506.035L488.662 621.231ZM652.411 621.231H815.524L798.21 586.499H652.441L652.411 621.231ZM816.236 621.231H979.211L944.554 586.499H798.922L816.236 621.231ZM980.111 621.231H1142.87L1090.87 586.499H945.454L980.111 621.231ZM1235.9 585.861L1180.3 558.01H1049.37L1091.06 585.861H1235.9ZM1089.92 585.861L1048.22 558.01H917.026L944.818 585.861H1089.92ZM943.918 585.861L916.126 558.01H784.72L798.604 585.861H943.918ZM797.892 585.861L784.008 558.01H652.466L652.442 585.861H797.892ZM651.804 585.861L651.829 558.01H520.286L506.354 585.861H651.804ZM505.642 585.861L519.574 558.01H388.164L360.324 585.861H505.642ZM359.423 585.861L387.263 558.01H256.077L214.33 585.861H359.423ZM213.182 585.861L254.929 558.01H123.998L68.3427 585.861H213.182ZM138.612 807.67L219.865 726.382H435.351L394.689 807.67H138.612ZM395.402 807.67L436.063 726.382H651.683L651.612 807.67H395.402ZM652.25 807.67L652.32 726.382H867.941L908.462 807.67H652.25ZM909.174 807.67L868.653 726.382H1084.14L1165.25 807.67H909.174ZM1179.02 557.372L1133.5 534.571H1014.27L1048.41 557.372H1179.02ZM1047.26 557.372L1013.13 534.571H893.638L916.39 557.372H1047.26ZM915.49 557.372L892.737 534.571H773.036L784.403 557.372H915.49ZM783.691 557.372L772.324 534.571H652.486L652.466 557.372H783.691ZM651.829 557.372L651.849 534.571H532.011L520.605 557.372H651.829ZM519.892 557.372L531.298 534.571H411.592L388.801 557.372H519.892ZM387.9 557.372L410.691 534.571H291.21L257.033 557.372H387.9ZM255.884 557.372L290.062 534.571H170.835L125.271 557.372H255.884ZM170.684 533.934H52.0627L99.4769 514.949H208.619L170.684 533.934ZM291.017 533.934H172.108L210.043 514.949H319.473L291.017 533.934ZM411.328 533.934H292.166L320.621 514.949H430.304L411.328 533.934ZM412.229 533.934H531.617L541.113 514.949H431.205L412.229 533.934ZM532.329 533.934H651.849L651.866 514.949H541.825L532.329 533.934ZM652.487 533.934H772.007L762.543 514.949H652.503L652.487 533.934ZM772.719 533.934H892.102L873.158 514.949H763.255L772.719 533.934ZM1012.17 533.934H893.002L874.059 514.949H983.749L1012.17 533.934ZM1132.23 533.934H1013.32L984.897 514.949H1094.33L1132.23 533.934ZM1252.28 533.934H1133.65L1095.75 514.949H1204.9L1252.28 533.934ZM1120.87 427.63H1055.93L1074.84 433.946H1142.94L1120.87 427.63ZM1123.19 427.63L1145.26 433.946H1213.06L1187.83 427.63H1123.19ZM1190.45 427.63L1215.68 433.946H1283.16L1254.78 427.63H1190.45ZM49.7334 427.63L21.3447 433.946H88.8268L114.065 427.63H49.7334ZM116.69 427.63L91.4518 433.946H159.249L181.332 427.63H116.69ZM183.649 427.63L161.566 433.946H229.667L248.596 427.63H183.649ZM250.609 427.63L231.68 433.946H300.075L315.85 427.63H250.609ZM317.565 427.63L301.789 433.946H370.486L383.107 427.63H317.565ZM384.531 427.63L371.91 433.946H440.89L450.358 427.63H384.531ZM451.506 427.63L442.039 433.946H511.272L517.585 427.63H451.506ZM518.486 427.63L512.173 433.946H581.632L584.792 427.63H518.486ZM585.504 427.63L582.345 433.946H651.936L651.941 427.63H585.504ZM652.579 427.63L652.573 433.946H722.164L719.015 427.63H652.579ZM719.727 427.63L722.876 433.946H792.329L786.026 427.63H719.727ZM786.927 427.63L793.229 433.946H862.472L853.016 427.63H786.927ZM854.163 427.63L863.62 433.946H932.6L919.99 427.63H854.163ZM921.413 427.63L934.023 433.946H1002.72L986.95 427.63H921.413ZM988.664 427.63L1004.43 433.946H1072.83L1053.91 427.63H988.664ZM1185.28 471.49L1220.69 483.312H1127.65L1098.14 471.49H1185.28ZM1096.42 471.49L1125.93 483.312H1032.58L1008.98 471.49H1096.42ZM1127.52 483.949H1033.86L1061.2 497.647H1161.71L1127.52 483.949ZM1007.56 471.49L1031.16 483.312H937.53L919.829 471.49H1007.56ZM1032.43 483.949H938.484L958.991 497.647H1059.78L1032.43 483.949ZM918.682 471.49L936.382 483.312H842.489L830.692 471.49H918.682ZM937.336 483.949H843.125L856.793 497.647H957.844L937.336 483.949ZM829.792 471.49L841.589 483.312H747.484L741.591 471.49H829.792ZM842.225 483.949H747.802L754.63 497.647H855.893L842.225 483.949ZM740.879 471.49L746.772 483.312H652.53L652.541 471.49H740.879ZM747.09 483.949H652.53L652.518 497.647H753.918L747.09 483.949ZM651.903 471.49L651.893 483.312H557.651L563.565 471.49H651.903ZM651.893 483.949H557.332L550.481 497.647H651.881L651.893 483.949ZM562.852 471.49L556.938 483.312H462.829L474.646 471.49H562.852ZM556.62 483.949H462.192L448.5 497.647H549.768L556.62 483.949ZM473.745 471.49L461.928 483.312H368.043L385.764 471.49H473.745ZM461.291 483.949H367.088L346.556 497.647H447.599L461.291 483.949ZM384.616 471.49L366.895 483.312H273.263L296.888 471.49H384.616ZM365.94 483.949H271.99L244.619 497.647H345.408L365.94 483.949ZM295.464 471.49L271.839 483.312H178.494L208.022 471.49H295.464ZM270.566 483.949H176.902L142.692 497.647H243.195L270.566 483.949ZM206.307 471.49L176.779 483.312H83.7312L119.163 471.49H206.307ZM175.188 483.949H81.8213L40.7705 497.647H140.977L175.188 483.949ZM1222.6 483.949H1129.24L1163.43 497.647H1263.62L1222.6 483.949ZM101.069 514.312H209.893L241.921 498.284H141.1L101.069 514.312ZM211.317 514.312H320.428L344.453 498.284H243.345L211.317 514.312ZM321.576 514.312H430.941L446.962 498.284H345.601L321.576 514.312ZM541.432 514.312H431.842L447.863 498.284H549.449L541.432 514.312ZM651.866 514.312H542.144L550.162 498.284H651.88L651.866 514.312ZM762.226 514.312H652.504L652.517 498.284H754.236L762.226 514.312ZM872.522 514.312H762.938L754.948 498.284H856.529L872.522 514.312ZM873.423 514.312H982.795L958.798 498.284H857.429L873.423 514.312ZM983.943 514.312H1093.05L1061.05 498.284H959.945L983.943 514.312ZM1094.48 514.312H1203.31L1163.3 498.284H1062.48L1094.48 514.312ZM908.78 808.308H652.249L652.131 944.733H976.787L908.78 808.308ZM651.612 808.308H395.083L326.841 944.733H651.494L651.612 808.308ZM394.37 808.308H137.975L1.60932 944.733H326.128L394.37 808.308ZM1165.89 808.308H909.492L977.499 944.733H1302.02L1165.89 808.308ZM58.0836 442.297L26.2529 450.263H102.2L130.052 442.297H58.0836ZM132.28 441.659H60.63L88.9053 434.583H157.02L132.28 441.659ZM132.369 442.297L104.518 450.263H180.767L204.64 442.297H132.369ZM206.55 441.659H134.597L159.338 434.583H227.757L206.55 441.659ZM206.653 442.297L182.78 450.263H259.323L279.219 442.297H206.653ZM280.81 441.659H208.563L229.77 434.583H298.483L280.81 441.659ZM280.933 442.297L261.038 450.263H337.881L353.799 442.297H280.933ZM355.072 441.659H282.525L300.198 434.583H369.212L355.072 441.659ZM355.223 442.297L339.305 450.263H416.433L428.374 442.297H355.223ZM429.329 441.659H356.496L370.636 434.583H439.935L429.329 441.659ZM429.522 442.297L417.582 450.263H494.963L502.925 442.297H429.522ZM503.562 441.659H430.477L441.083 434.583H510.635L503.562 441.659ZM503.826 442.297L495.864 450.263H573.47L577.455 442.297H503.826ZM577.774 441.659H504.463L511.536 434.583H581.313L577.774 441.659ZM578.168 442.297L574.183 450.263H651.922L651.929 442.297H578.168ZM651.929 441.659H578.486L582.026 434.583H651.935L651.929 441.659ZM652.566 442.297L652.559 450.263H730.297L726.326 442.297H652.566ZM726.009 441.659H652.566L652.573 434.583H722.481L726.009 441.659ZM727.038 442.297L731.009 450.263H808.61L800.662 442.297H727.038ZM800.026 441.659H726.721L723.193 434.583H792.965L800.026 441.659ZM801.562 442.297L809.51 450.263H886.901L874.975 442.297H801.562ZM874.021 441.659H800.926L793.865 434.583H863.426L874.021 441.659ZM876.122 442.297L888.048 450.263H965.177L949.273 442.297H876.122ZM948 441.659H875.168L864.574 434.583H933.873L948 441.659ZM950.696 442.297L966.6 450.263H1043.44L1023.56 442.297H950.696ZM1021.97 441.659H949.423L935.296 434.583H1004.31L1021.97 441.659ZM1025.27 442.297L1045.15 450.263H1121.7L1097.84 442.297H1025.27ZM1095.93 441.659H1023.68L1006.02 434.583H1074.74L1095.93 441.659ZM1099.85 442.297L1123.71 450.263H1199.96L1172.12 442.297H1099.85ZM1169.9 441.659H1097.95L1076.75 434.583H1145.17L1169.9 441.659ZM1174.44 442.297L1202.28 450.263H1278.23L1246.41 442.297H1174.44ZM1243.87 441.659H1172.21L1147.49 434.583H1215.6L1243.87 441.659ZM32.528 470.852H119.06L149.901 460.561H68.5089L32.528 470.852ZM207.899 470.852H121.073L151.915 460.561H233.601L207.899 470.852ZM296.737 470.852H209.613L235.316 460.561H317.301L296.737 470.852ZM385.571 470.852H298.161L318.725 460.561H400.996L385.571 470.852ZM474.382 470.852H386.719L402.145 460.561H484.668L474.382 470.852ZM563.171 470.852H475.283L485.569 460.561H568.319L563.171 470.852ZM651.904 470.852H563.884L569.031 460.561H651.913L651.904 470.852ZM740.561 470.852H652.541L652.55 460.561H735.431L740.561 470.852ZM829.156 470.852H741.273L736.143 460.561H818.887L829.156 470.852ZM917.728 470.852H830.056L819.787 460.561H902.32L917.728 470.852ZM1006.28 470.852H918.875L903.468 460.561H985.739L1006.28 470.852ZM1094.83 470.852H1007.71L987.161 460.561H1069.15L1094.83 470.852ZM1183.37 470.852H1096.55L1070.86 460.561H1152.55L1183.37 470.852ZM1185.38 470.852H1271.91L1235.95 460.561H1154.56L1185.38 470.852ZM1202.19 450.9L1233.72 459.924H1152.65L1125.62 450.9H1202.19ZM1123.61 450.9L1150.64 459.924H1069.27L1046.74 450.9H1123.61ZM1045.03 450.9L1067.56 459.924H985.889L967.872 450.9H1045.03ZM966.449 450.9L984.466 459.924H902.514L889.003 450.9H966.449ZM887.855 450.9L901.366 459.924H819.151L810.146 450.9H887.855ZM809.246 450.9L818.251 459.924H735.825L731.327 450.9H809.246ZM730.615 450.9L735.113 459.924H652.551L652.558 450.9H730.615ZM651.921 450.9L651.913 459.924H569.35L573.864 450.9H651.921ZM573.152 450.9L568.638 459.924H486.206L495.227 450.9H573.152ZM494.326 450.9L485.305 459.924H403.1L416.626 450.9H494.326ZM415.478 450.9L401.951 459.924H319.999L338.032 450.9H415.478ZM336.608 450.9L318.575 459.924H236.907L259.446 450.9H336.608ZM257.732 450.9L235.193 459.924H153.824L180.87 450.9H257.732ZM178.857 450.9L151.811 459.924H70.737L102.289 450.9H178.857Z" fill="url(#paint0_linear_475_202)" fill-opacity="0.7"/>
<path fill-rule="evenodd" clip-rule="evenodd" d="M1053.99 426.993C1053.97 426.991 1053.95 426.991 1053.93 426.993H987.039C987.018 426.991 986.998 426.991 986.977 426.993H920.094C920.073 426.991 920.052 426.991 920.032 426.993H853.141C853.121 426.991 853.1 426.991 853.08 426.993H786.187C786.167 426.991 786.147 426.991 786.127 426.993H719.242C719.222 426.991 719.201 426.991 719.18 426.993H652.291C652.281 426.992 652.271 426.991 652.261 426.991C652.25 426.991 652.24 426.992 652.23 426.993H585.339C585.318 426.991 585.298 426.991 585.277 426.993L518.386 426.993C518.366 426.991 518.346 426.991 518.326 426.993L451.442 426.993C451.422 426.991 451.401 426.991 451.381 426.993H384.489C384.469 426.991 384.448 426.991 384.428 426.993H317.538C317.517 426.991 317.496 426.991 317.476 426.993H250.593C250.572 426.991 250.552 426.991 250.531 426.993H183.641C183.621 426.991 183.6 426.991 183.579 426.993H116.688C116.668 426.991 116.647 426.991 116.626 426.993H49.7359C49.7157 426.991 49.6951 426.991 49.6743 426.993H0.565839C0.389865 426.993 0.24721 427.135 0.24721 427.311C0.24721 427.487 0.389865 427.63 0.565839 427.63H46.7992L18.4104 433.946H0.56483C0.388856 433.946 0.246202 434.089 0.246202 434.265C0.246202 434.441 0.388856 434.583 0.56483 434.583H15.5462L0.494622 437.932C0.322849 437.97 0.21458 438.141 0.252798 438.312C0.291015 438.484 0.461246 438.592 0.63302 438.554L18.4805 434.583H86.2804L58.005 441.659H0.56483C0.388856 441.659 0.246202 441.802 0.246202 441.978C0.246202 442.154 0.388856 442.297 0.56483 442.297H55.4586L23.6279 450.263H0.56483C0.388856 450.263 0.246202 450.405 0.246202 450.581C0.246202 450.757 0.388856 450.9 0.56483 450.9H21.0815L0.486468 456.054C0.315758 456.097 0.212004 456.27 0.254725 456.44C0.297446 456.611 0.470465 456.715 0.641174 456.672L23.7065 450.9H99.972L68.4195 459.924H0.56483C0.388856 459.924 0.246202 460.067 0.246202 460.243C0.246202 460.419 0.388856 460.561 0.56483 460.561H66.1915L30.2106 470.852H0.56483C0.388856 470.852 0.246202 470.995 0.246202 471.171C0.246202 471.347 0.388856 471.49 0.56483 471.49H27.9825L0.477212 479.356C0.308023 479.405 0.210095 479.581 0.258485 479.75C0.306875 479.92 0.483258 480.017 0.652448 479.969L30.2999 471.49H117.15L81.7178 483.312H0.56483C0.388856 483.312 0.246202 483.455 0.246202 483.631C0.246202 483.807 0.388856 483.949 0.56483 483.949H79.808L38.7572 497.647H0.56483C0.388856 497.647 0.246202 497.789 0.246202 497.965C0.246202 498.141 0.388856 498.284 0.56483 498.284H36.8474L0.463979 510.424C0.297053 510.48 0.206885 510.66 0.262583 510.827C0.318281 510.994 0.498754 511.084 0.665681 511.029L38.8607 498.284H139.386L99.3541 514.312H0.56483C0.388856 514.312 0.246202 514.455 0.246202 514.631C0.246202 514.807 0.388856 514.949 0.56483 514.949H97.7625L50.3483 533.934H0.56483C0.388856 533.934 0.246202 534.076 0.246202 534.252C0.246202 534.428 0.388856 534.571 0.56483 534.571H48.7567L0.447405 553.913C0.284039 553.979 0.20463 554.164 0.270039 554.327C0.335449 554.491 0.520908 554.57 0.684273 554.505L50.4711 534.571H169.411L123.847 557.372H0.56483C0.388856 557.372 0.246202 557.515 0.246202 557.691C0.246202 557.867 0.388856 558.01 0.56483 558.01H122.574L66.9187 585.861H0.56483C0.388856 585.861 0.246202 586.004 0.246202 586.18C0.246202 586.356 0.388856 586.499 0.56483 586.499H65.6453L0.423245 619.138C0.265877 619.217 0.202146 619.408 0.280898 619.565C0.359651 619.723 0.551064 619.787 0.708433 619.708L67.0693 586.499H212.227L160.166 621.231H0.56483C0.388856 621.231 0.246202 621.373 0.246202 621.549C0.246202 621.725 0.388856 621.868 0.56483 621.868H159.211L92.5931 666.312H0.56483C0.388856 666.312 0.246202 666.454 0.246202 666.63C0.246202 666.806 0.388856 666.949 0.56483 666.949H91.6379L3.50761 725.745H0.56483C0.388856 725.745 0.246202 725.888 0.246202 726.064C0.246202 726.24 0.388856 726.382 0.56483 726.382H2.55239L0.387999 727.826C0.241612 727.924 0.202113 728.122 0.299774 728.268C0.397435 728.414 0.595275 728.454 0.741661 728.356L3.70062 726.382H218.964L137.711 807.67H0.56483C0.388856 807.67 0.246202 807.813 0.246202 807.989C0.246202 808.165 0.388856 808.308 0.56483 808.308H137.074L0.616426 944.825C0.492021 944.949 0.492065 945.151 0.616525 945.275C0.630354 945.289 0.645138 945.302 0.660664 945.312C0.712474 945.349 0.775636 945.37 0.843798 945.37H1302.79C1302.96 945.37 1303.11 945.227 1303.11 945.052C1303.11 944.955 1303.06 944.869 1303 944.811L1166.79 808.308H1304.18C1304.36 808.308 1304.5 808.165 1304.5 807.989C1304.5 807.813 1304.36 807.67 1304.18 807.67H1166.15L1085.04 726.382H1300.3L1304.01 728.857C1304.15 728.954 1304.35 728.915 1304.45 728.769C1304.55 728.622 1304.51 728.425 1304.36 728.327L1301.45 726.382H1304.18C1304.36 726.382 1304.5 726.24 1304.5 726.064C1304.5 725.888 1304.36 725.745 1304.18 725.745H1300.5L1212.47 666.949H1304.18C1304.36 666.949 1304.5 666.806 1304.5 666.63C1304.5 666.454 1304.36 666.312 1304.18 666.312H1211.51L1144.97 621.868H1304.18C1304.36 621.868 1304.5 621.725 1304.5 621.549C1304.5 621.373 1304.36 621.231 1304.18 621.231H1144.02L1092.02 586.499H1237.18L1304.04 619.99C1304.2 620.069 1304.39 620.006 1304.47 619.848C1304.55 619.691 1304.49 619.499 1304.33 619.421L1238.6 586.499H1304.18C1304.36 586.499 1304.5 586.356 1304.5 586.18C1304.5 586.004 1304.36 585.861 1304.18 585.861H1237.33L1181.72 558.01H1304.18C1304.36 558.01 1304.5 557.867 1304.5 557.691C1304.5 557.515 1304.36 557.372 1304.18 557.372H1180.45L1134.92 534.571H1253.87L1304.07 554.68C1304.23 554.746 1304.42 554.666 1304.48 554.503C1304.55 554.34 1304.47 554.154 1304.3 554.089L1255.59 534.571H1304.18C1304.36 534.571 1304.5 534.428 1304.5 534.252C1304.5 534.076 1304.36 533.934 1304.18 533.934H1254L1206.61 514.949H1304.18C1304.36 514.949 1304.5 514.807 1304.5 514.631C1304.5 514.455 1304.36 514.312 1304.18 514.312H1205.02L1165.02 498.284H1265.53L1304.08 511.156C1304.25 511.211 1304.43 511.121 1304.49 510.954C1304.54 510.788 1304.45 510.607 1304.29 510.551L1267.54 498.284H1304.18C1304.36 498.284 1304.5 498.141 1304.5 497.965C1304.5 497.789 1304.36 497.647 1304.18 497.647H1265.64L1224.61 483.949H1304.18C1304.36 483.949 1304.5 483.807 1304.5 483.631C1304.5 483.455 1304.36 483.312 1304.18 483.312H1222.7L1187.29 471.49H1274.14L1304.1 480.064C1304.27 480.112 1304.44 480.014 1304.49 479.845C1304.54 479.676 1304.44 479.5 1304.27 479.451L1276.45 471.49H1304.18C1304.36 471.49 1304.5 471.347 1304.5 471.171C1304.5 470.995 1304.36 470.852 1304.18 470.852H1274.22L1238.26 460.561H1304.18C1304.36 460.561 1304.5 460.419 1304.5 460.243C1304.5 460.067 1304.36 459.924 1304.18 459.924H1236.04L1204.5 450.9H1280.78L1304.11 456.741C1304.28 456.783 1304.45 456.68 1304.49 456.509C1304.54 456.338 1304.43 456.165 1304.26 456.122L1283.4 450.9H1304.18C1304.36 450.9 1304.5 450.757 1304.5 450.581C1304.5 450.405 1304.36 450.263 1304.18 450.263H1280.86L1249.04 442.297H1304.18C1304.36 442.297 1304.5 442.154 1304.5 441.978C1304.5 441.802 1304.36 441.659 1304.18 441.659H1246.49L1218.23 434.583H1286.03L1304.12 438.609C1304.29 438.647 1304.46 438.539 1304.5 438.367C1304.53 438.195 1304.43 438.025 1304.25 437.987L1288.96 434.583H1304.18C1304.36 434.583 1304.5 434.441 1304.5 434.265C1304.5 434.089 1304.36 433.946 1304.18 433.946H1286.1L1257.71 427.63H1304.19C1304.36 427.63 1304.5 427.487 1304.5 427.311C1304.5 427.135 1304.36 426.993 1304.19 426.993H1254.84C1254.82 426.991 1254.8 426.991 1254.78 426.993H1187.9C1187.87 426.991 1187.85 426.991 1187.83 426.993H1120.94C1120.92 426.991 1120.9 426.991 1120.88 426.993H1053.99ZM1210.37 666.312L1143.83 621.868H980.747L1025.1 666.312H1210.37ZM1024.2 666.312L979.847 621.868H816.553L838.708 666.312H1024.2ZM839.026 666.949H1024.83L1083.5 725.745H868.335L839.026 666.949ZM837.996 666.312L815.841 621.868H652.411L652.372 666.312H837.996ZM652.372 666.949H838.314L867.623 725.745H652.321L652.372 666.949ZM651.735 666.312L651.773 621.868H488.343L466.112 666.312H651.735ZM465.793 666.949H651.734L651.683 725.745H436.382L465.793 666.949ZM465.399 666.312L487.631 621.868H324.333L279.909 666.312H465.399ZM279.272 666.949H465.08L435.67 725.745H220.502L279.272 666.949ZM279.008 666.312L323.432 621.868H160.359L93.7414 666.312H279.008ZM92.7862 666.949H278.371L219.601 725.745H4.65583L92.7862 666.949ZM1025.73 666.949H1211.32L1299.35 725.745H1084.4L1025.73 666.949ZM161.314 621.231H324.069L358.786 586.499H213.375L161.314 621.231ZM324.97 621.231H487.949L505.323 586.499H359.687L324.97 621.231ZM488.662 621.231H651.774L651.804 586.499H506.035L488.662 621.231ZM652.411 621.231H815.524L798.21 586.499H652.441L652.411 621.231ZM816.236 621.231H979.211L944.554 586.499H798.922L816.236 621.231ZM980.111 621.231H1142.87L1090.87 586.499H945.454L980.111 621.231ZM1235.9 585.861L1180.3 558.01H1049.37L1091.06 585.861H1235.9ZM1089.92 585.861L1048.22 558.01H917.026L944.818 585.861H1089.92ZM943.918 585.861L916.126 558.01H784.72L798.604 585.861H943.918ZM797.892 585.861L784.008 558.01H652.466L652.442 585.861H797.892ZM651.804 585.861L651.829 558.01H520.286L506.354 585.861H651.804ZM505.642 585.861L519.574 558.01H388.164L360.324 585.861H505.642ZM359.423 585.861L387.263 558.01H256.077L214.33 585.861H359.423ZM213.182 585.861L254.929 558.01H123.998L68.3427 585.861H213.182ZM138.612 807.67L219.865 726.382H435.351L394.689 807.67H138.612ZM395.402 807.67L436.063 726.382H651.683L651.612 807.67H395.402ZM652.25 807.67L652.32 726.382H867.941L908.462 807.67H652.25ZM909.174 807.67L868.653 726.382H1084.14L1165.25 807.67H909.174ZM1179.02 557.372L1133.5 534.571H1014.27L1048.41 557.372H1179.02ZM1047.26 557.372L1013.13 534.571H893.638L916.39 557.372H1047.26ZM915.49 557.372L892.737 534.571H773.036L784.403 557.372H915.49ZM783.691 557.372L772.324 534.571H652.486L652.466 557.372H783.691ZM651.829 557.372L651.849 534.571H532.011L520.605 557.372H651.829ZM519.892 557.372L531.298 534.571H411.592L388.801 557.372H519.892ZM387.9 557.372L410.691 534.571H291.21L257.033 557.372H387.9ZM255.884 557.372L290.062 534.571H170.835L125.271 557.372H255.884ZM170.684 533.934H52.0627L99.4769 514.949H208.619L170.684 533.934ZM291.017 533.934H172.108L210.043 514.949H319.473L291.017 533.934ZM411.328 533.934H292.166L320.621 514.949H430.304L411.328 533.934ZM412.229 533.934H531.617L541.113 514.949H431.205L412.229 533.934ZM532.329 533.934H651.849L651.866 514.949H541.825L532.329 533.934ZM652.487 533.934H772.007L762.543 514.949H652.503L652.487 533.934ZM772.719 533.934H892.102L873.158 514.949H763.255L772.719 533.934ZM1012.17 533.934H893.002L874.059 514.949H983.749L1012.17 533.934ZM1132.23 533.934H1013.32L984.897 514.949H1094.33L1132.23 533.934ZM1252.28 533.934H1133.65L1095.75 514.949H1204.9L1252.28 533.934ZM1120.87 427.63H1055.93L1074.84 433.946H1142.94L1120.87 427.63ZM1123.19 427.63L1145.26 433.946H1213.06L1187.83 427.63H1123.19ZM1190.45 427.63L1215.68 433.946H1283.16L1254.78 427.63H1190.45ZM49.7334 427.63L21.3447 433.946H88.8268L114.065 427.63H49.7334ZM116.69 427.63L91.4518 433.946H159.249L181.332 427.63H116.69ZM183.649 427.63L161.566 433.946H229.667L248.596 427.63H183.649ZM250.609 427.63L231.68 433.946H300.075L315.85 427.63H250.609ZM317.565 427.63L301.789 433.946H370.486L383.107 427.63H317.565ZM384.531 427.63L371.91 433.946H440.89L450.358 427.63H384.531ZM451.506 427.63L442.039 433.946H511.272L517.585 427.63H451.506ZM518.486 427.63L512.173 433.946H581.632L584.792 427.63H518.486ZM585.504 427.63L582.345 433.946H651.936L651.941 427.63H585.504ZM652.579 427.63L652.573 433.946H722.164L719.015 427.63H652.579ZM719.727 427.63L722.876 433.946H792.329L786.026 427.63H719.727ZM786.927 427.63L793.229 433.946H862.472L853.016 427.63H786.927ZM854.163 427.63L863.62 433.946H932.6L919.99 427.63H854.163ZM921.413 427.63L934.023 433.946H1002.72L986.95 427.63H921.413ZM988.664 427.63L1004.43 433.946H1072.83L1053.91 427.63H988.664ZM1185.28 471.49L1220.69 483.312H1127.65L1098.14 471.49H1185.28ZM1096.42 471.49L1125.93 483.312H1032.58L1008.98 471.49H1096.42ZM1127.52 483.949H1033.86L1061.2 497.647H1161.71L1127.52 483.949ZM1007.56 471.49L1031.16 483.312H937.53L919.829 471.49H1007.56ZM1032.43 483.949H938.484L958.991 497.647H1059.78L1032.43 483.949ZM918.682 471.49L936.382 483.312H842.489L830.692 471.49H918.682ZM937.336 483.949H843.125L856.793 497.647H957.844L937.336 483.949ZM829.792 471.49L841.589 483.312H747.484L741.591 471.49H829.792ZM842.225 483.949H747.802L754.63 497.647H855.893L842.225 483.949ZM740.879 471.49L746.772 483.312H652.53L652.541 471.49H740.879ZM747.09 483.949H652.53L652.518 497.647H753.918L747.09 483.949ZM651.903 471.49L651.893 483.312H557.651L563.565 471.49H651.903ZM651.893 483.949H557.332L550.481 497.647H651.881L651.893 483.949ZM562.852 471.49L556.938 483.312H462.829L474.646 471.49H562.852ZM556.62 483.949H462.192L448.5 497.647H549.768L556.62 483.949ZM473.745 471.49L461.928 483.312H368.043L385.764 471.49H473.745ZM461.291 483.949H367.088L346.556 497.647H447.599L461.291 483.949ZM384.616 471.49L366.895 483.312H273.263L296.888 471.49H384.616ZM365.94 483.949H271.99L244.619 497.647H345.408L365.94 483.949ZM295.464 471.49L271.839 483.312H178.494L208.022 471.49H295.464ZM270.566 483.949H176.902L142.692 497.647H243.195L270.566 483.949ZM206.307 471.49L176.779 483.312H83.7312L119.163 471.49H206.307ZM175.188 483.949H81.8213L40.7705 497.647H140.977L175.188 483.949ZM1222.6 483.949H1129.24L1163.43 497.647H1263.62L1222.6 483.949ZM101.069 514.312H209.893L241.921 498.284H141.1L101.069 514.312ZM211.317 514.312H320.428L344.453 498.284H243.345L211.317 514.312ZM321.576 514.312H430.941L446.962 498.284H345.601L321.576 514.312ZM541.432 514.312H431.842L447.863 498.284H549.449L541.432 514.312ZM651.866 514.312H542.144L550.162 498.284H651.88L651.866 514.312ZM762.226 514.312H652.504L652.517 498.284H754.236L762.226 514.312ZM872.522 514.312H762.938L754.948 498.284H856.529L872.522 514.312ZM873.423 514.312H982.795L958.798 498.284H857.429L873.423 514.312ZM983.943 514.312H1093.05L1061.05 498.284H959.945L983.943 514.312ZM1094.48 514.312H1203.31L1163.3 498.284H1062.48L1094.48 514.312ZM908.78 808.308H652.249L652.131 944.733H976.787L908.78 808.308ZM651.612 808.308H395.083L326.841 944.733H651.494L651.612 808.308ZM394.37 808.308H137.975L1.60932 944.733H326.128L394.37 808.308ZM1165.89 808.308H909.492L977.499 944.733H1302.02L1165.89 808.308ZM58.0836 442.297L26.2529 450.263H102.2L130.052 442.297H58.0836ZM132.28 441.659H60.63L88.9053 434.583H157.02L132.28 441.659ZM132.369 442.297L104.518 450.263H180.767L204.64 442.297H132.369ZM206.55 441.659H134.597L159.338 434.583H227.757L206.55 441.659ZM206.653 442.297L182.78 450.263H259.323L279.219 442.297H206.653ZM280.81 441.659H208.563L229.77 434.583H298.483L280.81 441.659ZM280.933 442.297L261.038 450.263H337.881L353.799 442.297H280.933ZM355.072 441.659H282.525L300.198 434.583H369.212L355.072 441.659ZM355.223 442.297L339.305 450.263H416.433L428.374 442.297H355.223ZM429.329 441.659H356.496L370.636 434.583H439.935L429.329 441.659ZM429.522 442.297L417.582 450.263H494.963L502.925 442.297H429.522ZM503.562 441.659H430.477L441.083 434.583H510.635L503.562 441.659ZM503.826 442.297L495.864 450.263H573.47L577.455 442.297H503.826ZM577.774 441.659H504.463L511.536 434.583H581.313L577.774 441.659ZM578.168 442.297L574.183 450.263H651.922L651.929 442.297H578.168ZM651.929 441.659H578.486L582.026 434.583H651.935L651.929 441.659ZM652.566 442.297L652.559 450.263H730.297L726.326 442.297H652.566ZM726.009 441.659H652.566L652.573 434.583H722.481L726.009 441.659ZM727.038 442.297L731.009 450.263H808.61L800.662 442.297H727.038ZM800.026 441.659H726.721L723.193 434.583H792.965L800.026 441.659ZM801.562 442.297L809.51 450.263H886.901L874.975 442.297H801.562ZM874.021 441.659H800.926L793.865 434.583H863.426L874.021 441.659ZM876.122 442.297L888.048 450.263H965.177L949.273 442.297H876.122ZM948 441.659H875.168L864.574 434.583H933.873L948 441.659ZM950.696 442.297L966.6 450.263H1043.44L1023.56 442.297H950.696ZM1021.97 441.659H949.423L935.296 434.583H1004.31L1021.97 441.659ZM1025.27 442.297L1045.15 450.263H1121.7L1097.84 442.297H1025.27ZM1095.93 441.659H1023.68L1006.02 434.583H1074.74L1095.93 441.659ZM1099.85 442.297L1123.71 450.263H1199.96L1172.12 442.297H1099.85ZM1169.9 441.659H1097.95L1076.75 434.583H1145.17L1169.9 441.659ZM1174.44 442.297L1202.28 450.263H1278.23L1246.41 442.297H1174.44ZM1243.87 441.659H1172.21L1147.49 434.583H1215.6L1243.87 441.659ZM32.528 470.852H119.06L149.901 460.561H68.5089L32.528 470.852ZM207.899 470.852H121.073L151.915 460.561H233.601L207.899 470.852ZM296.737 470.852H209.613L235.316 460.561H317.301L296.737 470.852ZM385.571 470.852H298.161L318.725 460.561H400.996L385.571 470.852ZM474.382 470.852H386.719L402.145 460.561H484.668L474.382 470.852ZM563.171 470.852H475.283L485.569 460.561H568.319L563.171 470.852ZM651.904 470.852H563.884L569.031 460.561H651.913L651.904 470.852ZM740.561 470.852H652.541L652.55 460.561H735.431L740.561 470.852ZM829.156 470.852H741.273L736.143 460.561H818.887L829.156 470.852ZM917.728 470.852H830.056L819.787 460.561H902.32L917.728 470.852ZM1006.28 470.852H918.875L903.468 460.561H985.739L1006.28 470.852ZM1094.83 470.852H1007.71L987.161 460.561H1069.15L1094.83 470.852ZM1183.37 470.852H1096.55L1070.86 460.561H1152.55L1183.37 470.852ZM1185.38 470.852H1271.91L1235.95 460.561H1154.56L1185.38 470.852ZM1202.19 450.9L1233.72 459.924H1152.65L1125.62 450.9H1202.19ZM1123.61 450.9L1150.64 459.924H1069.27L1046.74 450.9H1123.61ZM1045.03 450.9L1067.56 459.924H985.889L967.872 450.9H1045.03ZM966.449 450.9L984.466 459.924H902.514L889.003 450.9H966.449ZM887.855 450.9L901.366 459.924H819.151L810.146 450.9H887.855ZM809.246 450.9L818.251 459.924H735.825L731.327 450.9H809.246ZM730.615 450.9L735.113 459.924H652.551L652.558 450.9H730.615ZM651.921 450.9L651.913 459.924H569.35L573.864 450.9H651.921ZM573.152 450.9L568.638 459.924H486.206L495.227 450.9H573.152ZM494.326 450.9L485.305 459.924H403.1L416.626 450.9H494.326ZM415.478 450.9L401.951 459.924H319.999L338.032 450.9H415.478ZM336.608 450.9L318.575 459.924H236.907L259.446 450.9H336.608ZM257.732 450.9L235.193 459.924H153.824L180.87 450.9H257.732ZM178.857 450.9L151.811 459.924H70.737L102.289 450.9H178.857Z" fill="url(#paint1_linear_475_202)"/>
<g style="mix-blend-mode:screen" filter="url(#filter0_f_475_202)">
<path d="M577.069 404.222C800.99 -229.054 1283.02 -529.726 1403.93 -613.156L-137.44 -135.99L89.2747 1217.81C420.811 1141.6 365.469 1002.65 577.069 404.222Z" fill="url(#paint2_radial_475_202)" fill-opacity="0.3"/>
</g>
<circle cx="680.806" cy="0.132009" r="2.16218" transform="rotate(-180 680.806 0.132009)" fill="#FB42FF" fill-opacity="0.15"/>
<circle cx="409.48" cy="206.875" r="3.24283" transform="rotate(-180 409.48 206.875)" fill="#FF42E1" fill-opacity="0.3"/>
<circle cx="552.714" cy="246.309" r="3.24283" transform="rotate(-180 552.714 246.309)" fill="#FF42E1" fill-opacity="0.3"/>
<circle cx="462.803" cy="280.834" r="3.24283" transform="rotate(-180 462.803 280.834)" fill="#F042FF" fill-opacity="0.1"/>
<circle cx="535.723" cy="219.064" r="3.24283" transform="rotate(-180 535.723 219.064)" fill="#FB42FF" fill-opacity="0.15"/>
<circle cx="462.407" cy="68.14" r="3.24283" transform="rotate(-180 462.407 68.14)" fill="#F042FF" fill-opacity="0.1"/>
<circle cx="400.763" cy="25.1869" r="3.24283" transform="rotate(-180 400.763 25.1869)" fill="#FF42E1" fill-opacity="0.3"/>
<circle cx="864.216" cy="330.56" r="1.08064" transform="rotate(-180 864.216 330.56)" fill="#FB42FF" fill-opacity="0.15"/>
<circle cx="765.967" cy="281.487" r="1.08064" transform="rotate(-180 765.967 281.487)" fill="#FF42E1" fill-opacity="0.3"/>
<circle cx="872.385" cy="196.887" r="1.08064" transform="rotate(-180 872.385 196.887)" fill="#F042FF" fill-opacity="0.1"/>
<circle cx="617.409" cy="100.571" r="1.08064" transform="rotate(-180 617.409 100.571)" fill="#FF42E1" fill-opacity="0.3"/>
<circle cx="854.82" cy="247.649" r="1.08064" transform="rotate(-180 854.82 247.649)" fill="#FF42EC" fill-opacity="0.6"/>
<circle cx="545.551" cy="261.612" r="1.08064" transform="rotate(-180 545.551 261.612)" fill="#F042FF" fill-opacity="0.1"/>
<circle cx="544.352" cy="149.959" r="1.08064" transform="rotate(-180 544.352 149.959)" fill="#F042FF" fill-opacity="0.1"/>
<circle cx="881.512" cy="39.4091" r="1.08064" transform="rotate(-180 881.512 39.4091)" fill="#FF42E1" fill-opacity="0.3"/>
<circle cx="738.297" cy="359.263" r="1.08064" transform="rotate(-180 738.297 359.263)" fill="#FF42E1" fill-opacity="0.3"/>
<circle cx="728.304" cy="74.6994" r="1.08064" transform="rotate(-180 728.304 74.6994)" fill="#F042FF" fill-opacity="0.7"/>
<circle cx="916.104" cy="117.242" r="1.08064" transform="rotate(-180 916.104 117.242)" fill="#FB42FF" fill-opacity="0.15"/>
<circle cx="414.516" cy="125.89" r="1.08064" transform="rotate(-180 414.516 125.89)" fill="#F042FF" fill-opacity="0.1"/>
<circle cx="477.361" cy="190.074" r="1.08064" transform="rotate(-180 477.361 190.074)" fill="#FF42E1" fill-opacity="0.3"/>
<circle cx="725.906" cy="201.65" r="1.08064" transform="rotate(-180 725.906 201.65)" fill="#FB42FF" fill-opacity="0.15"/>
<circle cx="725.835" cy="53.5129" r="1.08064" transform="rotate(-180 725.835 53.5129)" fill="#F042FF" fill-opacity="0.1"/>
<circle cx="758.531" cy="66.5356" r="1.08064" transform="rotate(-180 758.531 66.5356)" fill="#FF42E1" fill-opacity="0.3"/>
<circle cx="408.751" cy="91.2973" r="1.08064" transform="rotate(-180 408.751 91.2973)" fill="#FB42FF" fill-opacity="0.15"/>
<circle cx="400.104" cy="319.029" r="1.08064" transform="rotate(-180 400.104 319.029)" fill="#FF42E1" fill-opacity="0.3"/>
<circle cx="532.706" cy="71.1188" r="1.08064" transform="rotate(-180 532.706 71.1188)" fill="#F042FF" fill-opacity="0.1"/>
<path d="M655.441 82.801L654.982 81.0975L653.278 80.6388L654.982 80.1802L655.441 78.4767L655.899 80.1802L657.603 80.6388L655.899 81.0975L655.441 82.801Z" fill="#F042FF" fill-opacity="0.1"/>
<path d="M728.728 237.453L728.269 235.749L726.565 235.29L728.269 234.832L728.728 233.128L729.186 234.832L730.89 235.29L729.186 235.749L728.728 237.453Z" fill="#FB42FF" fill-opacity="0.15"/>
<path d="M544.093 24.894L543.635 23.1905L541.931 22.7319L543.635 22.2732L544.093 20.5697L544.552 22.2732L546.256 22.7319L544.552 23.1905L544.093 24.894Z" fill="#FF42E1" fill-opacity="0.3"/>
<circle cx="910.34" cy="50.9399" r="1.08064" transform="rotate(-180 910.34 50.9399)" fill="#FF42E1" fill-opacity="0.3"/>
<path d="M932.524 243.564C908.012 152.905 830.991 -47.1697 719.001 -122.19" stroke="url(#paint3_linear_475_202)" stroke-opacity="0.15" stroke-width="7.28"/>
<path d="M560.76 -131.439C560.052 -59.4151 508.82 120.089 309.555 261.911" stroke="url(#paint4_linear_475_202)" stroke-opacity="0.15" stroke-width="7.28"/>
</g>
<rect x="0.5" y="0.5" width="1275" height="607" rx="13.202" stroke="url(#paint5_linear_475_202)"/>
<defs>
<filter id="filter0_f_475_202" x="-406.708" y="-882.424" width="2079.91" height="2369.51" filterUnits="userSpaceOnUse" color-interpolation-filters="sRGB">
<feFlood flood-opacity="0" result="BackgroundImageFix"/>
<feBlend mode="normal" in="SourceGraphic" in2="BackgroundImageFix" result="shape"/>
<feGaussianBlur stdDeviation="134.634" result="effect1_foregroundBlur_475_202"/>
</filter>
<linearGradient id="paint0_linear_475_202" x1="652.375" y1="454.824" x2="652.375" y2="859.945" gradientUnits="userSpaceOnUse">
<stop offset="0.0640087" stop-color="white" stop-opacity="0"/>
<stop offset="0.258526" stop-color="white" stop-opacity="0.8"/>
<stop offset="0.486011" stop-color="white" stop-opacity="0"/>
<stop offset="1" stop-color="white" stop-opacity="0"/>
</linearGradient>
<linearGradient id="paint1_linear_475_202" x1="337.013" y1="542.769" x2="959.736" y2="542.769" gradientUnits="userSpaceOnUse">
<stop/>
<stop offset="0.52582" stop-opacity="0"/>
<stop offset="1"/>
</linearGradient>
<radialGradient id="paint2_radial_475_202" cx="0" cy="0" r="1" gradientUnits="userSpaceOnUse" gradientTransform="translate(995.56 257.352) rotate(-150.409) scale(884.936 884.961)">
<stop offset="0.409332" stop-color="#AF2A31"/>
<stop offset="1" stop-opacity="0"/>
<stop offset="1" stop-color="#2D2E32" stop-opacity="0"/>
</radialGradient>
<linearGradient id="paint3_linear_475_202" x1="803.597" y1="-131.925" x2="906.605" y2="159.121" gradientUnits="userSpaceOnUse">
<stop stop-color="#FF42EC"/>
<stop offset="1" stop-color="white" stop-opacity="0"/>
</linearGradient>
<linearGradient id="paint4_linear_475_202" x1="562.048" y1="-138.902" x2="409.236" y2="254.136" gradientUnits="userSpaceOnUse">
<stop stop-color="#FB42FF"/>
<stop offset="1" stop-color="white" stop-opacity="0"/>
</linearGradient>
<linearGradient id="paint5_linear_475_202" x1="98.4999" y1="-169.5" x2="964" y2="635" gradientUnits="userSpaceOnUse">
<stop stop-color="white" stop-opacity="0.19"/>
<stop offset="0.535" stop-color="white" stop-opacity="0"/>
<stop offset="1" stop-color="white" stop-opacity="0.27"/>
</linearGradient>
<clipPath id="clip0_475_202">
<rect width="1276" height="608" rx="13.702" fill="white"/>
</clipPath>
</defs>
</svg>
